<?xml version="1.0" encoding="UTF-8"?>
<svg id="Layer_2" data-name="Layer 2" xmlns="http://www.w3.org/2000/svg" viewBox="0 0 3184.31 3385.67">
  <defs>
    <style>
      .cls-1 {
        font-family: ApercuPro-Light, 'ApercuPro Light';
        font-size: 159.47px;
        font-weight: 300;
        letter-spacing: 0em;
      }

      .cls-2 {
        fill: none;
        stroke: #000;
        stroke-linecap: round;
        stroke-linejoin: round;
        stroke-width: 19.84px;
      }

      .cls-3 {
        font-family: ApercuPro-Bold, 'Apercu Pro';
        font-size: 205.32px;
        font-weight: 700;
        letter-spacing: 0em;
      }

      .cls-4 {
        fill: #141919;
      }
    </style>
  </defs>
  <g id="Layer_1-2" data-name="Layer 1">
    <g id="Artwork_32" data-name="Artwork 32">
      <text class="cls-4" transform="translate(0 174.52) scale(.97 1)"><tspan class="cls-3"><tspan x="0" y="0">TEXTURE</tspan></tspan><tspan class="cls-1"><tspan x="0" y="191.37">1mx1m = 35,60 m approx. </tspan></tspan></text>
      <g id="_ÉTOILES_01" data-name="ÉTOILES_01">
        <g>
          <g>
            <line class="cls-2" x1="26.79" y1="3303.99" x2="27.23" y2="2811.29"/>
            <line class="cls-2" x1="489.24" y1="3013.22" x2="86.49" y2="2777.03"/>
            <polyline class="cls-2" points="61.07 3312.9 202.56 3049.71 59.53 2802.99"/>
            <line class="cls-2" x1="379.58" y1="2740.26" x2="517.22" y2="2987.55"/>
            <line class="cls-2" x1="86.92" y1="3338.23" x2="491.78" y2="3086.78"/>
            <path class="cls-2" d="M97.09,3374.85c-.24-39.39-31.71-71.11-70.29-70.87"/>
            <path class="cls-2" d="M27.23,2811.29c38.58-.25,69.66-32.38,69.41-71.76-.24-39.09-31.24-70.63-69.41-70.87"/>
            <line class="cls-2" x1="481.61" y1="3050.16" x2="202.56" y2="3050.16"/>
            <line class="cls-2" x1="26.79" y1="2175.98" x2="27.23" y2="2668.67"/>
            <line class="cls-2" x1="489.68" y1="2466.49" x2="86.49" y2="2702.94"/>
            <polyline class="cls-2" points="61.07 2167.06 202.56 2430.25 59.53 2676.97"/>
            <polyline class="cls-2" points="96.65 2739.98 379.58 2739.7 517.22 2492.42"/>
            <line class="cls-2" x1="86.92" y1="2141.73" x2="491.78" y2="2393.18"/>
            <path class="cls-2" d="M27.67,2033.35c38.58.25,69.66,32.38,69.41,71.76s-31.71,71.11-70.29,70.87"/>
            <line class="cls-2" x1="481.61" y1="2429.8" x2="202.56" y2="2429.8"/>
          </g>
          <g>
            <line class="cls-2" x1="2648.84" y1="3121.03" x2="2649.07" y2="3375.75"/>
            <line class="cls-2" x1="2683.11" y1="3112.11" x2="2824.6" y2="3375.3"/>
            <line class="cls-2" x1="3103.66" y1="3374.85" x2="2824.6" y2="3374.85"/>
            <line class="cls-2" x1="2615" y1="3112.11" x2="2473.7" y2="3374.95"/>
            <line class="cls-2" x1="2196.82" y1="3374.85" x2="2473.51" y2="3374.85"/>
          </g>
          <g>
            <line class="cls-2" x1="1599.93" y1="3121.03" x2="1600.16" y2="3375.3"/>
            <line class="cls-2" x1="1634.21" y1="3112.11" x2="1775.7" y2="3375.3"/>
            <line class="cls-2" x1="2054.75" y1="3374.85" x2="1775.7" y2="3374.85"/>
            <line class="cls-2" x1="1566.1" y1="3112.11" x2="1424.6" y2="3375.3"/>
            <line class="cls-2" x1="1145.55" y1="3374.85" x2="1424.6" y2="3374.85"/>
          </g>
          <g>
            <line class="cls-2" x1="551.03" y1="3121.03" x2="551.25" y2="3375.3"/>
            <line class="cls-2" x1="585.3" y1="3112.11" x2="726.79" y2="3375.3"/>
            <line class="cls-2" x1="1005.85" y1="3374.85" x2="726.79" y2="3374.85"/>
            <line class="cls-2" x1="517.19" y1="3112.11" x2="375.7" y2="3375.3"/>
            <line class="cls-2" x1="96.65" y1="3374.85" x2="375.7" y2="3374.85"/>
          </g>
          <g>
            <line class="cls-2" x1="3173.51" y1="3303.99" x2="3173.95" y2="2811.29"/>
            <path class="cls-2" d="M3173.51,3303.99c-38.13.24-68.93,31.63-69.41,70.38"/>
            <path class="cls-2" d="M3173.07,2668.67c-38.58.25-69.66,32.38-69.41,71.76.24,39.39,31.71,71.11,70.29,70.87"/>
            <line class="cls-2" x1="2711.13" y1="3013.44" x2="3113.69" y2="2777.36"/>
            <polyline class="cls-2" points="3139.68 3312.9 2998.18 3049.71 3140.8 2803.69"/>
            <line class="cls-2" x1="2821.16" y1="2740.26" x2="2683.52" y2="2987.55"/>
            <line class="cls-2" x1="3113.83" y1="3338.23" x2="2708.96" y2="3086.78"/>
            <ellipse class="cls-2" cx="2649.28" cy="3049.71" rx="69.85" ry="71.32"/>
            <line class="cls-2" x1="2719.13" y1="3050.16" x2="2998.18" y2="3050.16"/>
            <line class="cls-2" x1="3173.51" y1="2175.98" x2="3173.95" y2="2668.67"/>
            <path class="cls-2" d="M3173.51,2175.98c-38.58-.25-69.66-32.38-69.41-71.76.24-39.39,31.71-71.11,70.29-70.87"/>
            <line class="cls-2" x1="2711.06" y1="2466.48" x2="3113.93" y2="2702.75"/>
            <polyline class="cls-2" points="3139.68 2167.06 2998.18 2430.25 3141.1 2676.79"/>
            <polyline class="cls-2" points="3103.66 2739.98 2821.16 2739.7 2683.52 2492.42"/>
            <line class="cls-2" x1="3113.83" y1="2141.73" x2="2708.96" y2="2393.18"/>
            <ellipse class="cls-2" cx="2649.28" cy="2430.25" rx="69.85" ry="71.32"/>
            <line class="cls-2" x1="2719.13" y1="2429.8" x2="2998.18" y2="2429.8"/>
            <line class="cls-2" x1="2649.28" y1="2501.56" x2="2649.28" y2="2978.4"/>
          </g>
          <g>
            <line class="cls-2" x1="2124.61" y1="3303.99" x2="2125.04" y2="2811.29"/>
            <line class="cls-2" x1="2587.42" y1="3013.44" x2="2184.63" y2="2777.22"/>
            <polyline class="cls-2" points="2158.88 3312.9 2300.37 3049.71 2158.24 2804.54"/>
            <line class="cls-2" x1="2477.39" y1="2740.26" x2="2615.03" y2="2987.55"/>
            <line class="cls-2" x1="2184.73" y1="3338.23" x2="2589.59" y2="3086.78"/>
            <path class="cls-2" d="M2194.9,3374.85c-.24-39.39-31.71-71.11-70.29-70.87-38.13.24-68.93,31.63-69.41,70.38"/>
            <path class="cls-2" d="M2157.35,2802.99c22.21-12.06,37.28-35.99,37.11-63.46-.24-39.39-31.71-71.11-70.29-70.87-38.58.25-69.66,32.38-69.41,71.76.24,39.39,31.71,71.11,70.29,70.87,11.68-.07,22.67-3.07,32.31-8.3"/>
            <line class="cls-2" x1="2579.42" y1="3050.16" x2="2300.37" y2="3050.16"/>
            <line class="cls-2" x1="1661.63" y1="3013.79" x2="2065.02" y2="2777.22"/>
            <polyline class="cls-2" points="2090.77 3312.9 1949.28 3049.71 2092.2 2803.17"/>
            <line class="cls-2" x1="1772.26" y1="2740.26" x2="1634.62" y2="2987.55"/>
            <line class="cls-2" x1="2064.92" y1="3338.23" x2="1660.06" y2="3086.78"/>
            <ellipse class="cls-2" cx="1600.37" cy="3049.71" rx="69.85" ry="71.32"/>
            <line class="cls-2" x1="1670.23" y1="3050.16" x2="1949.28" y2="3050.16"/>
            <line class="cls-2" x1="2124.61" y1="2175.98" x2="2125.04" y2="2668.67"/>
            <line class="cls-2" x1="2587.5" y1="2466.48" x2="2184.3" y2="2702.94"/>
            <polyline class="cls-2" points="2158.88 2167.06 2300.37 2430.25 2157.35 2676.97"/>
            <polyline class="cls-2" points="2194.46 2739.98 2477.39 2739.7 2615.03 2492.42"/>
            <line class="cls-2" x1="2184.73" y1="2141.73" x2="2589.59" y2="2393.18"/>
            <line class="cls-2" x1="2579.42" y1="2429.8" x2="2300.37" y2="2429.8"/>
            <line class="cls-2" x1="1661.99" y1="2466.38" x2="2063.53" y2="2701.87"/>
            <polyline class="cls-2" points="2090.77 2167.06 1949.28 2430.25 2092.3 2676.97"/>
            <polyline class="cls-2" points="2054.75 2739.98 1772.26 2739.7 1634.62 2492.42"/>
            <line class="cls-2" x1="2064.92" y1="2141.73" x2="1660.06" y2="2393.18"/>
            <ellipse class="cls-2" cx="1600.37" cy="2430.25" rx="69.85" ry="71.32"/>
            <line class="cls-2" x1="1670.23" y1="2429.8" x2="1949.28" y2="2429.8"/>
          </g>
          <g>
            <line class="cls-2" x1="1075.7" y1="3303.99" x2="1076.14" y2="2811.29"/>
            <line class="cls-2" x1="1539.12" y1="3013.79" x2="1136.58" y2="2777.72"/>
            <polyline class="cls-2" points="1109.97 3312.9 1251.47 3049.71 1109.33 2804.53"/>
            <line class="cls-2" x1="1428.49" y1="2740.26" x2="1566.12" y2="2987.55"/>
            <line class="cls-2" x1="1135.82" y1="3338.23" x2="1540.69" y2="3086.78"/>
            <path class="cls-2" d="M1145.99,3374.85c-.24-39.39-31.71-71.11-70.29-70.87-38.13.24-68.93,31.63-69.41,70.38"/>
            <ellipse class="cls-2" cx="1075.7" cy="2739.98" rx="69.85" ry="71.32"/>
            <line class="cls-2" x1="1530.52" y1="3050.16" x2="1251.47" y2="3050.16"/>
            <line class="cls-2" x1="613.69" y1="3013.22" x2="1014.96" y2="2777.89"/>
            <polyline class="cls-2" points="1041.86 3312.9 900.37 3049.71 1042.5 2804.53"/>
            <line class="cls-2" x1="723.35" y1="2740.26" x2="585.71" y2="2987.55"/>
            <line class="cls-2" x1="1016.01" y1="3338.23" x2="611.15" y2="3086.78"/>
            <ellipse class="cls-2" cx="551.47" cy="3049.71" rx="69.85" ry="71.32"/>
            <line class="cls-2" x1="621.32" y1="3050.16" x2="900.37" y2="3050.16"/>
            <line class="cls-2" x1="1075.7" y1="2175.98" x2="1076.14" y2="2668.67"/>
            <line class="cls-2" x1="1538.76" y1="2466.38" x2="1136.48" y2="2702.3"/>
            <polyline class="cls-2" points="1109.97 2167.06 1251.47 2430.25 1109.33 2675.43"/>
            <polyline class="cls-2" points="1145.55 2739.98 1428.49 2739.7 1566.12 2492.42"/>
            <line class="cls-2" x1="1135.82" y1="2141.73" x2="1540.69" y2="2393.18"/>
            <ellipse class="cls-2" cx="1076.14" cy="2104.66" rx="69.85" ry="71.32"/>
            <line class="cls-2" x1="1530.52" y1="2429.8" x2="1251.47" y2="2429.8"/>
            <line class="cls-2" x1="613.25" y1="2466.49" x2="1016.12" y2="2702.75"/>
            <polyline class="cls-2" points="1041.86 2167.06 900.37 2430.25 1042.5 2675.43"/>
            <polyline class="cls-2" points="1005.85 2739.98 723.35 2739.7 585.71 2492.42"/>
            <line class="cls-2" x1="1016.01" y1="2141.73" x2="611.15" y2="2393.18"/>
            <ellipse class="cls-2" cx="551.47" cy="2430.25" rx="69.85" ry="71.32"/>
            <line class="cls-2" x1="621.32" y1="2429.8" x2="900.37" y2="2429.8"/>
            <line class="cls-2" x1="551.47" y1="2501.56" x2="551.47" y2="2978.4"/>
            <line class="cls-2" x1="1599.93" y1="2501.56" x2="1599.93" y2="2978.4"/>
          </g>
          <line class="cls-2" x1="3173.51" y1="1556.51" x2="3173.51" y2="2033.35"/>
          <g>
            <line class="cls-2" x1="2648.84" y1="2358.94" x2="2649.28" y2="1866.24"/>
            <line class="cls-2" x1="3113.38" y1="2069.4" x2="2708.86" y2="1832.17"/>
            <polyline class="cls-2" points="2683.11 2367.85 2824.6 2104.66 2681.58 1857.94"/>
            <line class="cls-2" x1="3001.63" y1="1795.21" x2="3139.26" y2="2042.5"/>
            <ellipse class="cls-2" cx="2648.84" cy="1794.93" rx="69.85" ry="71.32"/>
            <line class="cls-2" x1="3103.66" y1="2105.11" x2="2824.6" y2="2105.11"/>
            <line class="cls-2" x1="2185.52" y1="2068.94" x2="2589.25" y2="1832.17"/>
            <polyline class="cls-2" points="2615 2367.85 2473.51 2104.66 2616.43 1858.12"/>
            <line class="cls-2" x1="2296.49" y1="1795.21" x2="2158.85" y2="2042.5"/>
            <ellipse class="cls-2" cx="2124.61" cy="2104.66" rx="69.85" ry="71.32"/>
            <line class="cls-2" x1="2194.46" y1="2105.11" x2="2473.51" y2="2105.11"/>
            <line class="cls-2" x1="2648.84" y1="1230.93" x2="2649.28" y2="1723.62"/>
            <line class="cls-2" x1="3112.51" y1="1520.97" x2="2708.54" y2="1757.89"/>
            <polyline class="cls-2" points="2683.11 1222.01 2824.6 1485.2 2681.58 1731.92"/>
            <polyline class="cls-2" points="2718.69 1794.93 3001.63 1794.65 3139.26 1547.37"/>
            <line class="cls-2" x1="3103.66" y1="1484.75" x2="2824.6" y2="1484.75"/>
            <line class="cls-2" x1="2186.13" y1="1521.28" x2="2589.26" y2="1757.7"/>
            <polyline class="cls-2" points="2615 1222.01 2473.51 1485.2 2615.87 1730.76"/>
            <polyline class="cls-2" points="2578.99 1794.93 2296.49 1794.65 2159.45 1548.44"/>
            <line class="cls-2" x1="2195.64" y1="1484.75" x2="2473.51" y2="1484.75"/>
          </g>
          <g>
            <line class="cls-2" x1="1599.93" y1="2358.94" x2="1600.37" y2="1866.24"/>
            <line class="cls-2" x1="2064.47" y1="2069.4" x2="1659.63" y2="1831.98"/>
            <polyline class="cls-2" points="1634.21 2367.85 1775.7 2104.66 1632.67 1857.94"/>
            <line class="cls-2" x1="1952.72" y1="1795.21" x2="2090.36" y2="2042.5"/>
            <ellipse class="cls-2" cx="1599.93" cy="1794.93" rx="69.85" ry="71.32"/>
            <line class="cls-2" x1="2054.75" y1="2105.11" x2="1775.7" y2="2105.11"/>
            <line class="cls-2" x1="1137.86" y1="2068.21" x2="1540.35" y2="1832.17"/>
            <polyline class="cls-2" points="1566.1 2367.85 1424.6 2104.66 1567.53 1858.12"/>
            <line class="cls-2" x1="1247.58" y1="1795.21" x2="1110.77" y2="2041.02"/>
            <line class="cls-2" x1="1147.04" y1="2105.11" x2="1424.6" y2="2105.11"/>
            <line class="cls-2" x1="1599.93" y1="1230.93" x2="1600.37" y2="1723.62"/>
            <line class="cls-2" x1="2064.47" y1="1520.46" x2="1659.63" y2="1757.88"/>
            <polyline class="cls-2" points="1634.21 1222.01 1775.7 1485.2 1632.67 1731.92"/>
            <polyline class="cls-2" points="1669.79 1794.93 1952.72 1794.65 2090.36 1547.37"/>
            <line class="cls-2" x1="2054.75" y1="1484.75" x2="1775.7" y2="1484.75"/>
            <line class="cls-2" x1="1136.61" y1="1520.92" x2="1540.35" y2="1757.7"/>
            <polyline class="cls-2" points="1566.1 1222.01 1424.6 1485.2 1566.88 1730.63"/>
            <polyline class="cls-2" points="1530.08 1794.93 1247.58 1794.65 1110.44 1548.26"/>
            <line class="cls-2" x1="1146.86" y1="1484.75" x2="1424.6" y2="1484.75"/>
            <line class="cls-2" x1="2124.17" y1="1556.51" x2="2124.17" y2="2033.35"/>
          </g>
          <g>
            <line class="cls-2" x1="551.03" y1="2358.94" x2="551.47" y2="1866.24"/>
            <line class="cls-2" x1="1015.57" y1="2069.4" x2="610.73" y2="1831.98"/>
            <polyline class="cls-2" points="585.3 2367.85 726.79 2104.66 583.77 1857.94"/>
            <line class="cls-2" x1="903.82" y1="1795.21" x2="1041.45" y2="2042.5"/>
            <ellipse class="cls-2" cx="551.03" cy="1794.93" rx="69.85" ry="71.32"/>
            <line class="cls-2" x1="1005.85" y1="2105.11" x2="726.79" y2="2105.11"/>
            <line class="cls-2" x1="88.48" y1="2068.48" x2="490.27" y2="1832.85"/>
            <polyline class="cls-2" points="517.19 2367.85 375.7 2104.66 518.62 1858.12"/>
            <line class="cls-2" x1="198.68" y1="1795.21" x2="61.04" y2="2042.5"/>
            <line class="cls-2" x1="98.46" y1="2105.11" x2="375.7" y2="2105.11"/>
            <line class="cls-2" x1="551.03" y1="1230.93" x2="551.47" y2="1723.62"/>
            <line class="cls-2" x1="1015.57" y1="1520.46" x2="610.73" y2="1757.89"/>
            <polyline class="cls-2" points="585.3 1222.01 726.79 1485.2 583.77 1731.92"/>
            <polyline class="cls-2" points="620.88 1794.93 903.82 1794.65 1041.45 1547.37"/>
            <line class="cls-2" x1="1005.85" y1="1484.75" x2="726.79" y2="1484.75"/>
            <line class="cls-2" x1="87.71" y1="1520.92" x2="491.44" y2="1757.69"/>
            <polyline class="cls-2" points="517.19 1222.01 375.7 1485.2 518.62 1731.74"/>
            <polyline class="cls-2" points="481.17 1794.93 198.68 1794.65 61.57 1548.31"/>
            <line class="cls-2" x1="98.25" y1="1484.75" x2="375.7" y2="1484.75"/>
            <line class="cls-2" x1="26.79" y1="1556.51" x2="26.79" y2="2033.35"/>
            <line class="cls-2" x1="1075.26" y1="1556.51" x2="1075.26" y2="2033.35"/>
          </g>
          <g>
            <line class="cls-2" x1="3173.51" y1="1413.89" x2="3173.95" y2="921.19"/>
            <path class="cls-2" d="M3173.51,1413.89c-38.58.25-69.66,32.38-69.41,71.76.24,39.39,31.71,71.11,70.29,70.87"/>
            <path class="cls-2" d="M3173.07,778.57c-38.58.25-69.66,32.38-69.41,71.76.24,39.39,31.71,71.11,70.29,70.87"/>
            <line class="cls-2" x1="2709.86" y1="1124.09" x2="3113.92" y2="887.12"/>
            <polyline class="cls-2" points="3139.68 1422.8 2998.18 1159.61 3141.1 913.07"/>
            <line class="cls-2" x1="2821.16" y1="850.16" x2="2683.52" y2="1097.45"/>
            <line class="cls-2" x1="3113.83" y1="1448.13" x2="2708.96" y2="1196.68"/>
            <ellipse class="cls-2" cx="2649.28" cy="1159.61" rx="69.85" ry="71.32"/>
            <line class="cls-2" x1="2719.13" y1="1160.06" x2="2998.18" y2="1160.06"/>
            <line class="cls-2" x1="3173.74" y1="539.7" x2="3173.95" y2="778.57"/>
            <line class="cls-2" x1="2710.37" y1="575.98" x2="3113.93" y2="812.64"/>
            <line class="cls-2" x1="2998.18" y1="540.15" x2="3141.1" y2="786.69"/>
            <polyline class="cls-2" points="3103.66 849.88 2821.16 849.6 2683.52 602.32"/>
            <path class="cls-2" d="M2579.42,540.6c.24,39.39,31.71,71.11,70.29,70.87s69.66-32.38,69.41-71.76"/>
            <line class="cls-2" x1="2719.13" y1="539.7" x2="2998.18" y2="539.7"/>
          </g>
          <g>
            <line class="cls-2" x1="2124.61" y1="1413.89" x2="2125.04" y2="921.19"/>
            <line class="cls-2" x1="2587.35" y1="1123.29" x2="2184.3" y2="886.93"/>
            <polyline class="cls-2" points="2158.88 1422.8 2300.37 1159.61 2157.35 912.89"/>
            <line class="cls-2" x1="2477.39" y1="850.16" x2="2615.03" y2="1097.45"/>
            <line class="cls-2" x1="2184.73" y1="1448.13" x2="2589.59" y2="1196.68"/>
            <ellipse class="cls-2" cx="2125.04" cy="1485.2" rx="69.85" ry="71.32"/>
            <ellipse class="cls-2" cx="2124.61" cy="849.88" rx="69.85" ry="71.32"/>
            <line class="cls-2" x1="2579.42" y1="1160.06" x2="2300.37" y2="1160.06"/>
            <line class="cls-2" x1="1662.35" y1="1123.26" x2="2065.02" y2="887.12"/>
            <polyline class="cls-2" points="2090.77 1422.8 1949.28 1159.61 2092.2 913.07"/>
            <line class="cls-2" x1="1772.26" y1="850.16" x2="1634.62" y2="1097.45"/>
            <line class="cls-2" x1="2064.92" y1="1448.13" x2="1660.06" y2="1196.68"/>
            <ellipse class="cls-2" cx="1600.37" cy="1159.61" rx="69.85" ry="71.32"/>
            <line class="cls-2" x1="1670.23" y1="1160.06" x2="1949.28" y2="1160.06"/>
            <line class="cls-2" x1="2124.83" y1="539.7" x2="2125.04" y2="778.57"/>
            <line class="cls-2" x1="2588.18" y1="575.98" x2="2184.3" y2="812.84"/>
            <line class="cls-2" x1="2300.37" y1="540.15" x2="2157.35" y2="786.87"/>
            <polyline class="cls-2" points="2194.46 849.88 2477.39 849.6 2615.03 602.32"/>
            <path class="cls-2" d="M2719.13,540.6c-.24,39.39-31.71,71.11-70.29,70.87-38.58-.25-69.66-32.38-69.41-71.76"/>
            <line class="cls-2" x1="2579.42" y1="539.7" x2="2300.37" y2="539.7"/>
            <line class="cls-2" x1="1661.83" y1="576.19" x2="2065.02" y2="812.64"/>
            <line class="cls-2" x1="1949.28" y1="540.15" x2="2092.2" y2="786.69"/>
            <polyline class="cls-2" points="2054.75 849.88 1772.26 849.6 1634.62 602.32"/>
            <path class="cls-2" d="M1530.52,540.6c.24,39.39,31.71,71.11,70.29,70.87s69.66-32.38,69.41-71.76"/>
            <line class="cls-2" x1="1670.23" y1="539.7" x2="1949.28" y2="539.7"/>
            <line class="cls-2" x1="2648.84" y1="611.46" x2="2648.84" y2="1088.3"/>
          </g>
          <g>
            <line class="cls-2" x1="1075.7" y1="1413.89" x2="1076.14" y2="921.19"/>
            <line class="cls-2" x1="1538.39" y1="1123.26" x2="1136.91" y2="887.81"/>
            <polyline class="cls-2" points="1109.97 1422.8 1251.47 1159.61 1109.47 914.67"/>
            <line class="cls-2" x1="1428.49" y1="850.16" x2="1566.12" y2="1097.45"/>
            <line class="cls-2" x1="1135.82" y1="1448.13" x2="1540.69" y2="1196.68"/>
            <ellipse class="cls-2" cx="1076.14" cy="1485.2" rx="69.85" ry="71.32"/>
            <ellipse class="cls-2" cx="1075.7" cy="849.88" rx="69.85" ry="71.32"/>
            <line class="cls-2" x1="1530.52" y1="1160.06" x2="1251.47" y2="1160.06"/>
            <line class="cls-2" x1="612.67" y1="1123.72" x2="1016.11" y2="887.12"/>
            <polyline class="cls-2" points="1041.86 1422.8 900.37 1159.61 1043.29 913.07"/>
            <line class="cls-2" x1="723.35" y1="850.16" x2="585.71" y2="1097.45"/>
            <line class="cls-2" x1="1016.01" y1="1448.13" x2="611.15" y2="1196.68"/>
            <ellipse class="cls-2" cx="551.47" cy="1159.61" rx="69.85" ry="71.32"/>
            <line class="cls-2" x1="621.32" y1="1160.06" x2="900.37" y2="1160.06"/>
            <line class="cls-2" x1="1075.93" y1="539.7" x2="1076.14" y2="778.57"/>
            <line class="cls-2" x1="1538.91" y1="576.19" x2="1136.91" y2="811.95"/>
            <line class="cls-2" x1="1251.47" y1="540.15" x2="1109.47" y2="785.09"/>
            <polyline class="cls-2" points="1145.55 849.88 1428.49 849.6 1566.12 602.32"/>
            <line class="cls-2" x1="1530.52" y1="539.7" x2="1251.47" y2="539.7"/>
            <line class="cls-2" x1="612.85" y1="576.15" x2="1016.12" y2="812.65"/>
            <line class="cls-2" x1="900.37" y1="540.15" x2="1043.29" y2="786.69"/>
            <polyline class="cls-2" points="1005.85 849.88 723.35 849.6 585.71 602.32"/>
            <path class="cls-2" d="M481.61,540.6c.24,39.39,31.71,71.11,70.29,70.87s69.66-32.38,69.41-71.76"/>
            <line class="cls-2" x1="621.32" y1="539.7" x2="900.37" y2="539.7"/>
            <line class="cls-2" x1="551.47" y1="611.46" x2="551.47" y2="1088.3"/>
            <line class="cls-2" x1="1599.93" y1="611.46" x2="1599.93" y2="1088.3"/>
          </g>
          <g>
            <line class="cls-2" x1="26.79" y1="1413.89" x2="27.23" y2="921.19"/>
            <line class="cls-2" x1="490.26" y1="1123.72" x2="86.49" y2="886.93"/>
            <polyline class="cls-2" points="61.07 1422.8 202.56 1159.61 59.53 912.89"/>
            <line class="cls-2" x1="379.58" y1="850.16" x2="517.22" y2="1097.45"/>
            <line class="cls-2" x1="86.92" y1="1448.13" x2="491.78" y2="1196.68"/>
            <path class="cls-2" d="M27.67,1556.51c38.58-.25,69.66-32.38,69.41-71.76s-31.71-71.11-70.29-70.87"/>
            <path class="cls-2" d="M27.23,921.19c38.58-.25,69.66-32.38,69.41-71.76-.24-39.39-31.71-71.11-70.29-70.87"/>
            <line class="cls-2" x1="481.61" y1="1160.06" x2="202.56" y2="1160.06"/>
            <line class="cls-2" x1="27.02" y1="540.15" x2="27.23" y2="778.57"/>
            <line class="cls-2" x1="490.08" y1="576.15" x2="86.49" y2="812.83"/>
            <line class="cls-2" x1="202.56" y1="540.15" x2="59.53" y2="786.87"/>
            <polyline class="cls-2" points="96.65 849.88 379.58 849.6 517.22 602.32"/>
            <line class="cls-2" x1="481.61" y1="539.7" x2="202.56" y2="539.7"/>
          </g>
        </g>
      </g>
    </g>
  </g>
</svg>