<?xml version="1.0" encoding="UTF-8"?>
<svg id="Layer_2" data-name="Layer 2" xmlns="http://www.w3.org/2000/svg" viewBox="0 0 3024.33 4238.35">
  <path d="M3.9,13.86c20.1,8.9,39.5,19.4,58.3,30.8,21,12.7,41.2,26.4,61,40.9,5.3,3.9,10.5,7.8,15.7,11.7,1.2.9,2.4,1.9,3.7,2.8s1.1.9,1.7,1.3,1.3,1,.6.5.5.4.6.5c2.6,2,5.3,4.1,7.9,6.1,10.4,8.2,20.7,16.6,30.8,25.1,20.7,17.4,40.9,35.4,60.6,53.8,19.6,18.4,38.8,37.3,57.5,56.6,18,18.5,35.5,37.5,52.6,56.9,15.8,17.9,31.2,36.2,46,55,1.7,2.1,3.4,4.3,5.1,6.5.4.6.9,1.1,1.3,1.7-.8-1,0-.1.3.4.9,1.2,1.8,2.4,2.7,3.5,3.2,4.2,6.4,8.5,9.6,12.7,5.9,8,11.7,16.1,17.3,24.3,9.5,13.9,18.5,28.2,26.3,43.1,1.6,3.1,3.2,6.2,4.7,9.4s1.4,2.9,2,4.4.6,1.5,1,2.2c.5,1.1,0,0-.2-.5.1.4.3.8.5,1.2,2.1,5,3.9,10.1,5.2,15.4.3,1.1.5,2.2.7,3.3s.2,1,.3,1.5,0,.5.1.7c.3,1.5-.2-1.7-.1-.9,3.2-2.4,6.3-4.8,9.5-7.2-36.7-6.2-71.2-22.1-99.3-46.3-3,3.9-6.1,7.9-9.1,11.8,14.2,10.6,28.7,20.6,43.6,30.2,7.4,4.7,14.8,9.3,22.3,13.8,7.4,4.4,14.8,9.1,22.7,12.7,8.7,4,17.9,5.8,26.9,1.6,6.7-3.1,11.6-9.4,15.2-15.6,4.1-7.1,7.3-14.7,10.8-22.1,3.9-8.3,7.9-16.6,11.8-24.8,9-18.8,17.9-37.7,26.9-56.5s1.3-6.6-1.2-9.1-6.5-3.2-9.1-1.2-5.9,4.5-8.9,6.8c-3.2,2.5-4.9,6.5-2.7,10.3s7,5.2,10.3,2.7c3-2.3,5.9-4.5,8.9-6.8l-10.3-10.3c-15.2,31.8-30.3,63.6-45.5,95.4-2.9,6-5.6,11.7-9.9,15.7.1-.1-1.7,1.4-1,.8s-1.2.8-1.1.7c0,0-2.2,1.1-.9.6-.7.3-1.4.5-2.2.7-3.2.8-6.8-.2-10.2-1.6-7.2-3-13.9-7.4-20.5-11.4-7.4-4.4-14.7-8.8-22-13.4-15.9-10.1-31.5-20.9-46.6-32.1-3-2.2-7.7-.8-9.7,1.9-2.1,2.8-2.3,7.4.6,9.8,30,25.9,66.8,43.6,105.9,50.2,4.2.7,10.2-1.9,9.5-7.2-1.5-12-6-23.2-11.1-34.1-6.7-14.3-14.8-27.9-23.4-41.1s-22.4-32.9-34.5-48.7c-14.4-18.9-29.3-37.3-44.8-55.3-16.7-19.5-33.8-38.5-51.4-57.1-18.5-19.6-37.5-38.7-56.9-57.4-19.6-18.8-39.7-37.2-60.3-55-20.5-17.7-41.5-34.9-63.1-51.3-20.1-15.3-40.7-29.9-61.9-43.5C65.8,28.86,46,17.36,25.4,7.36c-4.6-2.2-9.3-4.4-14-6.5C7.7-.74,3.3-.24,1.1,3.56S.1,12.16,3.8,13.86h.1Z" style="fill: #221f1f;"/>
  <g style="isolation: isolate;">
    <text transform="translate(148.8 754.16)" style="fill: #1d1d1b; font-family: MyriadPro-Regular, &apos;Myriad Pro&apos;; font-size: 284.4px; isolation: isolate;"><tspan x="0" y="0">Li</tspan><tspan x="200.78" y="0" style="letter-spacing: 0em;">g</tspan><tspan x="358.05" y="0" style="letter-spacing: 0em;">ne c</tspan><tspan x="846.07" y="0" style="letter-spacing: 0em;">r</tspan><tspan x="936.23" y="0">oisé </tspan><tspan x="1474.3" y="0" style="letter-spacing: -.01em;">P</tspan><tspan x="1622.19" y="0">M</tspan></text>
    <text transform="translate(148.8 1095.46)" style="fill: #1d1d1b; font-family: MyriadPro-Regular, &apos;Myriad Pro&apos;; font-size: 284.4px; isolation: isolate;"><tspan x="0" y="0">44 ML</tspan></text>
  </g>
  <polyline points="973.94 4214.45 922.2 4214.45 176.28 3528.89 176.28 3438.35 2245.88 1390.3 2129.47 1390.3 2129.47 4072.16 2125.15 4076.48 176.28 2550.14 176.28 2463.91 3000.42 2463.91 3000.42 2597.57 758.35 1390.3 823.03 1390.3 572.95 4214.45 452.22 4214.45 3000.42 1567.08 3000.42 1679.18 2418.35 1390.3 2340.74 1390.3 2530.45 4214.45 2642.56 4214.45 176.28 1899.08 176.28 1808.53 3000.42 2019.81 3000.42 1942.2 831.65 4214.45 672.12 4214.45 3000.42 1821.47 3000.42 1739.55 176.28 1580.02 176.28 1748.17 685.05 1390.3 572.95 1390.3 3000.42 3873.83 3000.42 3968.68 2810.71 4214.45 2720.17 4214.45 2827.96 1390.3 3000.42 1390.3 176.28 4214.45 176.28 4033.36 2664.11 1390.3 2530.45 1390.3 176.28 3675.49 176.28 3761.72 3000.42 3641 3000.42 3744.48 2629.62 4041.98 2629.62 4046.29 3000.42 4067.85 3000.42 4214.45 176.28 1390.3 176.28 1489.47 396.17 1390.3 503.96 1390.3 314.25 4214.45 387.55 4214.45 176.28 3835.02 176.28 3912.63 1301.62 3977.31 1305.94 3981.62 1073.1 4214.45 1249.88 4214.45 1426.66 1390.3 1581.88 1390.3 1581.88 4214.45 1668.12 4214.45 3000.42 2795.91 3000.42 2692.43 176.28 2851.96 176.28 3033.05 2004.43 1390.3 1862.14 1390.3 176.28 2688.12 176.28 2765.73 1353.36 4214.45 1439.6 4214.45 3000.42 2343.18 3000.42 2261.26 1310.25 3973 1314.56 3977.31 2621 4046.29 2621 4050.61 2414.04 4214.45 2301.93 4214.45 2129.47 4080.79 2129.47 4214.45 2194.14 4214.45 3000.42 3291.75 3000.42 3511.65 2258.82 3468.53 2241.57 3468.53 176.28 3343.49 176.28 3140.84 3000.42 3140.84 3000.42 2968.38 1819.03 4214.45 1991.49 4214.45 1788.84 1390.3 1650.87 1390.3 1012.74 1817.16 973.94 1843.03 176.28 2373.36 176.28 2239.7 3000.42 2136.22 3000.42 2200.9 2254.5 1838.72 2232.95 1830.09 1331.81 1390.3 1224.01 1390.3 176.28 2183.65 176.28 2045.68 943.75 1390.3 995.49 1390.3 995.49 4214.45" style="fill: none; stroke: #000; stroke-miterlimit: 10; stroke-width: 19.8px;"/>
</svg>