<?xml version="1.0" encoding="UTF-8"?>
<svg id="Layer_2" data-name="Layer 2" xmlns="http://www.w3.org/2000/svg" viewBox="0 0 2971.18 4173.04">
  <path d="M3.9,13.86c20.1,8.9,39.5,19.4,58.3,30.8,21,12.7,41.2,26.4,61,40.9,5.3,3.9,10.5,7.8,15.7,11.7,1.2.9,2.4,1.9,3.7,2.8s1.1.9,1.7,1.3,1.3,1,.6.5.5.4.6.5c2.6,2,5.3,4.1,7.9,6.1,10.4,8.2,20.7,16.6,30.8,25.1,20.7,17.4,40.9,35.4,60.6,53.8,19.6,18.4,38.8,37.3,57.5,56.6,18,18.5,35.5,37.5,52.6,56.9,15.8,17.9,31.2,36.2,46,55,1.7,2.1,3.4,4.3,5.1,6.5.4.6.9,1.1,1.3,1.7-.8-1,0-.1.3.4.9,1.2,1.8,2.4,2.7,3.5,3.2,4.2,6.4,8.5,9.6,12.7,5.9,8,11.7,16.1,17.3,24.3,9.5,13.9,18.5,28.2,26.3,43.1,1.6,3.1,3.2,6.2,4.7,9.4s1.4,2.9,2,4.4.6,1.5,1,2.2c.5,1.1,0,0-.2-.5.1.4.3.8.5,1.2,2.1,5,3.9,10.1,5.2,15.4.3,1.1.5,2.2.7,3.3s.2,1,.3,1.5,0,.5.1.7c.3,1.5-.2-1.7-.1-.9,3.2-2.4,6.3-4.8,9.5-7.2-36.7-6.2-71.2-22.1-99.3-46.3-3,3.9-6.1,7.9-9.1,11.8,14.2,10.6,28.7,20.6,43.6,30.2,7.4,4.7,14.8,9.3,22.3,13.8,7.4,4.4,14.8,9.1,22.7,12.7,8.7,4,17.9,5.8,26.9,1.6,6.7-3.1,11.6-9.4,15.2-15.6,4.1-7.1,7.3-14.7,10.8-22.1,3.9-8.3,7.9-16.6,11.8-24.8,9-18.8,17.9-37.7,26.9-56.5s1.3-6.6-1.2-9.1-6.5-3.2-9.1-1.2-5.9,4.5-8.9,6.8c-3.2,2.5-4.9,6.5-2.7,10.3s7,5.2,10.3,2.7c3-2.3,5.9-4.5,8.9-6.8l-10.3-10.3c-15.2,31.8-30.3,63.6-45.5,95.4-2.9,6-5.6,11.7-9.9,15.7.1-.1-1.7,1.4-1,.8s-1.2.8-1.1.7c0,0-2.2,1.1-.9.6-.7.3-1.4.5-2.2.7-3.2.8-6.8-.2-10.2-1.6-7.2-3-13.9-7.4-20.5-11.4-7.4-4.4-14.7-8.8-22-13.4-15.9-10.1-31.5-20.9-46.6-32.1-3-2.2-7.7-.8-9.7,1.9-2.1,2.8-2.3,7.4.6,9.8,30,25.9,66.8,43.6,105.9,50.2,4.2.7,10.2-1.9,9.5-7.2-1.5-12-6-23.2-11.1-34.1-6.7-14.3-14.8-27.9-23.4-41.1s-22.4-32.9-34.5-48.7c-14.4-18.9-29.3-37.3-44.8-55.3-16.7-19.5-33.8-38.5-51.4-57.1-18.5-19.6-37.5-38.7-56.9-57.4-19.6-18.8-39.7-37.2-60.3-55-20.5-17.7-41.5-34.9-63.1-51.3-20.1-15.3-40.7-29.9-61.9-43.5C65.8,28.86,46,17.36,25.4,7.36c-4.6-2.2-9.3-4.4-14-6.5C7.7-.74,3.3-.24,1.1,3.56S.1,12.16,3.8,13.86h.1Z" style="fill: #221f1f;"/>
  <g style="isolation: isolate;">
    <text transform="translate(148.8 754.16)" style="fill: #1d1d1b; font-family: MyriadPro-Regular, &apos;Myriad Pro&apos;; font-size: 284.4px; isolation: isolate;"><tspan x="0" y="0">Li</tspan><tspan x="200.78" y="0" style="letter-spacing: 0em;">g</tspan><tspan x="358.05" y="0" style="letter-spacing: 0em;">ne c</tspan><tspan x="846.07" y="0" style="letter-spacing: 0em;">r</tspan><tspan x="936.23" y="0">oisé GM</tspan></text>
    <text transform="translate(148.8 1095.46)" style="fill: #1d1d1b; font-family: MyriadPro-Regular, &apos;Myriad Pro&apos;; font-size: 284.4px; isolation: isolate;"><tspan x="0" y="0">32 ML</tspan></text>
  </g>
  <polyline points="1167.04 4163.14 1074.81 4163.14 215.42 3555.28 215.42 3664.28 2961.28 2171.87 2961.28 2016.77 215.42 3320.52 215.42 2989.34 2961.28 2884.54 2961.28 3018.69 1297 4163.14 1452.11 4163.14 2890.01 1417.29 2961.28 1417.29 2961.28 1681.39 215.42 2838.43 215.42 2871.96 2114.46 4163.14 2181.54 4163.14 2961.28 3312.14 2961.28 3245.06 215.42 2326.98 215.42 2142.53 2122.85 1417.29 2340.84 1417.29 844.25 4163.14 722.67 4163.14 617.87 1417.29 890.36 1417.29 215.42 2624.63 215.42 2792.31 2491.76 1417.29 2554.64 1417.29 2257 4163.14 2315.69 4163.14 2961.28 3685.24 2961.28 4146.37 215.42 1769.43 215.42 1932.92 529.83 1417.29 215.42 1417.29 215.42 1517.9 2961.28 3131.88 2961.28 3177.99 215.42 4075.11 215.42 3811 2961.28 2557.55 2961.28 2666.55 1150.27 1417.29 1301.19 1417.29 1678.48 4163.14 1892.28 4163.14 1485.64 1417.29 1565.29 1417.29 2508.53 4163.14 2722.32 4163.14 2630.1 1417.29 2697.17 1417.29 2961.28 2486.29 2961.28 2251.53 1749.75 1417.29 1619.79 1417.29 341.19 4163.14 391.49 4163.14 2961.28 3647.51 2961.28 3546.9 215.42 3395.98 215.42 3492.4 1116.73 1417.29 978.39 1417.29 1183.81 4163.14" style="fill: none; stroke: #000; stroke-miterlimit: 10; stroke-width: 19.8px;"/>
</svg>