<?xml version="1.0" encoding="UTF-8"?>
<svg id="Layer_2" data-name="Layer 2" xmlns="http://www.w3.org/2000/svg" viewBox="0 0 3250.02 4177.81">
  <path d="M3.9,13.86c20.1,8.9,39.5,19.4,58.3,30.8,21,12.7,41.2,26.4,61,40.9,5.3,3.9,10.5,7.8,15.7,11.7,1.2.9,2.4,1.9,3.7,2.8s1.1.9,1.7,1.3,1.3,1,.6.5.5.4.6.5c2.6,2,5.3,4.1,7.9,6.1,10.4,8.2,20.7,16.6,30.8,25.1,20.7,17.4,40.9,35.4,60.6,53.8,19.6,18.4,38.8,37.3,57.5,56.6,18,18.5,35.5,37.5,52.6,56.9,15.8,17.9,31.2,36.2,46,55,1.7,2.1,3.4,4.3,5.1,6.5.4.6.9,1.1,1.3,1.7-.8-1,0-.1.3.4.9,1.2,1.8,2.4,2.7,3.5,3.2,4.2,6.4,8.5,9.6,12.7,5.9,8,11.7,16.1,17.3,24.3,9.5,13.9,18.5,28.2,26.3,43.1,1.6,3.1,3.2,6.2,4.7,9.4s1.4,2.9,2,4.4.6,1.5,1,2.2c.5,1.1,0,0-.2-.5.1.4.3.8.5,1.2,2.1,5,3.9,10.1,5.2,15.4.3,1.1.5,2.2.7,3.3s.2,1,.3,1.5,0,.5.1.7c.3,1.5-.2-1.7-.1-.9,3.2-2.4,6.3-4.8,9.5-7.2-36.7-6.2-71.2-22.1-99.3-46.3-3,3.9-6.1,7.9-9.1,11.8,14.2,10.6,28.7,20.6,43.6,30.2,7.4,4.7,14.8,9.3,22.3,13.8,7.4,4.4,14.8,9.1,22.7,12.7,8.7,4,17.9,5.8,26.9,1.6,6.7-3.1,11.6-9.4,15.2-15.6,4.1-7.1,7.3-14.7,10.8-22.1,3.9-8.3,7.9-16.6,11.8-24.8,9-18.8,17.9-37.7,26.9-56.5s1.3-6.6-1.2-9.1-6.5-3.2-9.1-1.2-5.9,4.5-8.9,6.8c-3.2,2.5-4.9,6.5-2.7,10.3s7,5.2,10.3,2.7c3-2.3,5.9-4.5,8.9-6.8l-10.3-10.3c-15.2,31.8-30.3,63.6-45.5,95.4-2.9,6-5.6,11.7-9.9,15.7.1-.1-1.7,1.4-1,.8s-1.2.8-1.1.7c0,0-2.2,1.1-.9.6-.7.3-1.4.5-2.2.7-3.2.8-6.8-.2-10.2-1.6-7.2-3-13.9-7.4-20.5-11.4-7.4-4.4-14.7-8.8-22-13.4-15.9-10.1-31.5-20.9-46.6-32.1-3-2.2-7.7-.8-9.7,1.9-2.1,2.8-2.3,7.4.6,9.8,30,25.9,66.8,43.6,105.9,50.2,4.2.7,10.2-1.9,9.5-7.2-1.5-12-6-23.2-11.1-34.1-6.7-14.3-14.8-27.9-23.4-41.1s-22.4-32.9-34.5-48.7c-14.4-18.9-29.3-37.3-44.8-55.3-16.7-19.5-33.8-38.5-51.4-57.1-18.5-19.6-37.5-38.7-56.9-57.4-19.6-18.8-39.7-37.2-60.3-55-20.5-17.7-41.5-34.9-63.1-51.3-20.1-15.3-40.7-29.9-61.9-43.5C65.8,28.86,46,17.36,25.4,7.36c-4.6-2.2-9.3-4.4-14-6.5C7.7-.74,3.3-.24,1.1,3.56S.1,12.16,3.8,13.86h.1Z" style="fill: #221f1f;"/>
  <g style="isolation: isolate;">
    <text transform="translate(148.8 754.16)" style="fill: #1d1d1b; font-family: MyriadPro-Regular, &apos;Myriad Pro&apos;; font-size: 284.4px; isolation: isolate;"><tspan x="0" y="0">spaghetti MM</tspan></text>
    <text transform="translate(148.8 1095.46)" style="fill: #1d1d1b; font-family: MyriadPro-Regular, &apos;Myriad Pro&apos;; font-size: 284.4px; isolation: isolate;"><tspan x="0" y="0">41 ML</tspan></text>
  </g>
  <polyline points="3249.83 1504.54 3239.89 1524.43 3234.92 1549.3" style="fill: none; stroke: #000; stroke-linecap: round; stroke-linejoin: round; stroke-width: .38px;"/>
  <g>
    <polyline points="2956.41 2881.81 2905.97 2873.41 2855.54 2860.8 2800.9 2848.19 2750.46 2835.58 2645.39 2797.75 2540.32 2759.93 2443.65 2722.1 2351.18 2680.07 2162.05 2596.01 2069.59 2553.98 1981.32 2511.95 1893.06 2478.33 1804.8 2444.71 1720.74 2419.49 1682.92 2406.88 1640.89 2398.47 1603.06 2390.07 1565.23 2385.86 1527.41 2381.66 1489.58 2377.46 1455.96 2381.66 1418.13 2381.66 1388.71 2390.07 1355.09 2398.47 1321.46 2411.08 1292.04 2423.69 1262.62 2444.71 1237.41 2465.72 1203.78 2495.14 1174.36 2532.97 1149.14 2570.79 1119.72 2612.82 1094.51 2654.85 1065.08 2701.08 1014.65 2797.75 960.01 2894.42 930.59 2936.45 901.17 2982.68 871.75 3020.51 838.13 3058.33 800.3 3091.96 762.47 3121.38 733.05 3138.19 703.63 3150.8 674.21 3163.41 644.79 3171.81 611.17 3180.22 577.54 3184.42 543.92 3188.63 510.3 3188.63 476.67 3188.63 438.85 3184.42 367.4 3180.22 295.95 3163.41 220.3 3146.6 220.3 3247.47 245.51 3260.07 270.73 3268.48 300.15 3276.89 325.37 3276.89 384.21 3272.68 413.63 3276.89 426.24 3281.09 434.64 3285.29 451.46 3297.9 464.06 3310.51 485.08 3348.34 493.49 3365.15 501.89 3377.76 514.5 3390.37 522.91 3394.57 531.31 3394.57 539.72 3390.37 548.12 3386.16 560.73 3377.76 577.54 3356.74 598.56 3331.52 619.57 3306.31 636.39 3281.09 644.79 3272.68 657.4 3264.28 665.81 3260.07 674.21 3255.87 682.62 3260.07 695.23 3264.28 703.63 3276.89 712.04 3293.7 716.24 3310.51 724.65 3331.52 733.05 3377.76 737.26 3411.38 741.46 3449.21 741.46 3482.83 745.66 3512.25 745.66 3537.47 745.66 3550.08 749.86 3558.48 749.86 3562.69 754.07 3566.89 758.27 3571.09 762.47 3566.89 766.68 3566.89 770.88 3562.69 779.28 3545.87 796.1 3529.06 808.71 3508.05 825.52 3487.03 842.33 3466.02 859.14 3453.41 871.75 3449.21 880.16 3445 892.76 3445 905.37 3449.21 922.19 3457.61 934.79 3466.02 943.2 3478.63 955.81 3495.44 964.21 3512.25 972.62 3529.06 981.03 3558.48 985.23 3587.9 993.63 3642.54 997.84 3667.76 1002.04 3692.98 1014.65 3713.99 1027.26 3726.6 1044.07 3739.21 1060.88 3743.41 1077.69 3747.62 1098.71 3751.82 1119.72 3751.82 1136.53 3747.62 1153.35 3743.41 1170.16 3735.01 1182.77 3730.8 1191.17 3722.4 1203.78 3701.38 1212.19 3676.17 1216.39 3646.74 1220.59 3617.32 1224.8 3583.7 1224.8 3554.28 1233.2 3520.66 1241.61 3478.63 1250.01 3440.8 1254.22 3423.99 1254.22 3411.38 1254.22 3394.57 1250.01 3381.96 1241.61 3369.35 1229 3360.95 1216.39 3352.54 1199.58 3348.34 1182.77 3344.13 1161.75 3339.93 1144.94 3339.93 1123.93 3339.93 1090.3 3348.34 1056.68 3356.74 1023.06 3360.95 1010.45 3360.95 997.84 3356.74 985.23 3348.34 972.62 3339.93 960.01 3327.32 951.61 3310.51 926.39 3281.09 913.78 3268.48 901.17 3255.87 880.16 3243.26 859.14 3230.65 812.91 3218.05 770.88 3205.44 749.86 3197.03 728.85 3184.42 720.44 3171.81 712.04 3159.2 703.63 3146.6 695.23 3133.99 691.02 3117.18 691.02 3100.36 691.02 3079.35 691.02 3062.54 699.43 3037.32 707.84 3012.1 720.44 2991.09 733.05 2970.07 749.86 2953.26 766.68 2940.65 770.88 2936.45 779.28 2932.25 787.69 2932.25 796.1 2932.25 800.3 2936.45 808.71 2944.85 817.11 2953.26 821.31 2965.87 833.92 2991.09 846.53 3020.51 854.94 3049.93 867.55 3075.15 875.95 3087.75 880.16 3096.16 888.56 3104.57 896.97 3104.57 905.37 3108.77 917.98 3104.57 930.59 3096.16 943.2 3087.75 968.42 3066.74 997.84 3037.32 1018.85 3020.51 1044.07 3003.7 1065.08 2986.88 1090.3 2974.27 1111.32 2965.87 1132.33 2961.67 1149.14 2961.67 1161.75 2965.87 1174.36 2978.48 1182.77 2995.29 1191.17 3016.3 1191.17 3041.52 1191.17 3070.94 1186.97 3100.36 1178.56 3129.78 1170.16 3163.41 1157.55 3197.03 1144.94 3230.65 1140.74 3243.26 1136.53 3260.07 1136.53 3268.48 1136.53 3281.09 1140.74 3285.29 1144.94 3289.49 1161.75 3297.9 1178.56 3302.1 1199.58 3306.31 1229 3306.31 1254.22 3306.31 1317.26 3302.1 1392.91 3297.9 1430.74 3297.9 1460.16 3302.1 1489.58 3306.31 1514.8 3314.71 1523.21 3318.92 1531.61 3323.12 1540.02 3331.52 1544.22 3339.93 1544.22 3352.54 1544.22 3369.35 1544.22 3386.16 1540.02 3407.18 1523.21 3445 1502.19 3491.24 1472.77 3566.89 1460.16 3604.72 1451.75 3642.54 1447.55 3671.96 1447.55 3688.77 1447.55 3701.38 1451.75 3713.99 1460.16 3726.6 1464.36 3735.01 1476.97 3743.41 1489.58 3747.62 1502.19 3751.82 1535.81 3756.02 1569.44 3756.02 1607.26 3747.62 1645.09 3739.21 1674.51 3722.4 1687.12 3713.99 1695.53 3705.59 1703.93 3697.18 1712.34 3688.77 1712.34 3680.37 1712.34 3667.76 1712.34 3659.35 1708.13 3650.95 1695.53 3629.93 1682.92 3604.72 1666.1 3583.7 1649.29 3558.48 1636.68 3529.06 1628.28 3499.64 1624.07 3482.83 1624.07 3466.02 1628.28 3449.21 1628.28 3428.19 1640.89 3394.57 1657.7 3365.15 1674.51 3335.73 1687.12 3327.32 1699.73 3314.71 1712.34 3310.51 1724.95 3302.1 1737.55 3302.1 1750.16 3302.1 1762.77 3306.31 1771.18 3310.51 1796.4 3323.12 1817.41 3344.13 1842.63 3365.15 1863.64 3386.16 1888.86 3402.97 1897.27 3407.18 1909.87 3411.38 1918.28 3415.58 1930.89 3415.58 1943.5 3411.38 1951.9 3402.97 1977.12 3386.16 1998.14 3369.35 2023.35 3352.54 2044.37 3344.13 2069.59 3339.93 2115.82 3339.93 2162.05 3339.93 2183.07 3335.73 2199.88 3331.52 2212.49 3318.92 2225.09 3306.31 2233.5 3289.49 2241.91 3272.68 2246.11 3251.67 2250.31 3230.65 2250.31 3209.64 2246.11 3188.63 2241.91 3167.61 2237.7 3146.6 2229.3 3125.58 2216.69 3104.57 2204.08 3091.96 2191.47 3079.35 2174.66 3070.94 2157.85 3066.74 2141.04 3066.74 2124.23 3066.74 2090.6 3070.94 2065.38 3066.74 2044.37 3058.33 2023.35 3045.72 2006.54 3033.12 1964.51 2999.49 1939.3 2982.68 1918.28 2970.07 1897.27 2965.87 1876.25 2961.67 1859.44 2961.67 1838.43 2961.67 1817.41 2965.87 1800.6 2970.07 1787.99 2982.68 1775.38 2995.29 1762.77 3007.9 1754.37 3024.71 1745.96 3062.54 1729.15 3096.16 1720.74 3112.97 1708.13 3121.38 1691.32 3129.78 1674.51 3133.99 1653.5 3133.99 1636.68 3129.78 1615.67 3121.38 1598.86 3117.18 1586.25 3104.57 1573.64 3091.96 1569.44 3079.35 1569.44 3070.94 1569.44 3054.13 1573.64 3041.52 1582.05 3012.1 1590.45 2978.48 1594.65 2957.46 1598.86 2936.45 1598.86 2915.43 1598.86 2894.42 1590.45 2873.41 1586.25 2856.59 1573.64 2839.78 1561.03 2827.17 1540.02 2814.56 1514.8 2806.16 1489.58 2793.55 1468.57 2780.94 1451.75 2764.13 1443.35 2747.32 1422.33 2705.29 1413.93 2684.27 1401.32 2663.26 1392.91 2646.45 1376.1 2633.84 1363.49 2625.43 1342.48 2621.23 1325.67 2621.23 1304.65 2625.43 1283.64 2633.84 1262.62 2642.24 1241.61 2650.65 1224.8 2663.26 1199.58 2684.27 1178.56 2705.29 1144.94 2751.52 1115.52 2793.55 1098.71 2814.56 1077.69 2831.38 1060.88 2843.98 1044.07 2852.39 1006.24 2865 964.21 2873.41 922.19 2873.41 888.56 2873.41 859.14 2869.2 829.72 2856.59 812.91 2852.39 800.3 2843.98 779.28 2827.17 762.47 2810.36 728.85 2772.53 712.04 2755.72 695.23 2738.91 678.41 2730.5 661.6 2722.1 648.99 2722.1 632.18 2726.3 602.76 2734.71 564.94 2751.52 531.31 2764.13 501.89 2768.33 476.67 2772.53 422.04 2772.53 396.82 2776.74 375.8 2780.94 358.99 2789.35 342.18 2801.95 337.98 2810.36 329.57 2822.97 325.37 2848.19 321.17 2877.61 316.96 2907.03 316.96 2940.65 308.56 2970.07 300.15 2995.29 295.95 3007.9 287.54 3020.51 274.93 3028.91 258.12 3037.32 241.31 3041.52 220.3 3045.72 220.3 3096.16 237.11 3096.16 253.92 3100.36 342.18 3117.18 363.19 3117.18 380.01 3121.38 396.82 3117.18 409.43 3108.77 417.83 3100.36 422.04 3091.96 426.24 3062.54 430.44 3033.12 426.24 2999.49 422.04 2957.46 413.63 2919.64 396.82 2890.22 388.41 2873.41 375.8 2860.8 358.99 2848.19 346.38 2839.78 325.37 2831.38 308.56 2822.97 266.53 2814.56 220.3 2810.36 220.3 2886.01 258.12 2902.83 291.74 2923.84 325.37 2949.06 354.79 2982.68 371.6 2995.29 384.21 3007.9 401.02 3020.51 417.83 3024.71 438.85 3028.91 459.86 3033.12 480.88 3028.91 501.89 3024.71 543.92 3007.9 590.15 2991.09 636.39 2970.07 678.41 2957.46 699.43 2953.26 720.44 2949.06 737.26 2949.06 754.07 2953.26 770.88 2961.67 783.49 2974.27 796.1 2986.88 804.5 2999.49 812.91 3016.3 821.31 3037.32 833.92 3079.35 833.92 3100.36 838.13 3121.38 838.13 3146.6 833.92 3167.61 829.72 3192.83 825.52 3213.84 817.11 3234.86 804.5 3255.87 791.89 3276.89 775.08 3293.7 737.26 3327.32 695.23 3356.74 657.4 3386.16 619.57 3411.38 602.76 3419.79 585.95 3432.4 577.54 3445 569.14 3461.82 564.94 3474.43 564.94 3487.03 564.94 3503.85 573.34 3520.66 594.36 3558.48 615.37 3596.31 627.98 3617.32 636.39 3642.54 640.59 3671.96 640.59 3705.59 636.39 3735.01 623.78 3768.63 611.17 3793.85 594.36 3823.27 573.34 3844.28 552.33 3861.09 535.52 3869.5 518.7 3877.91 497.69 3882.11 480.88 3882.11 459.86 3882.11 438.85 3882.11 396.82 3873.7 220.3 3831.67 220.3 3953.56 245.51 3949.36 266.53 3949.36 308.56 3953.56 346.38 3957.76 367.4 3957.76 384.21 3957.76 401.02 3957.76 417.83 3949.36 434.64 3936.75 447.25 3924.14 459.86 3911.53 468.27 3890.51 476.67 3873.7 480.88 3856.89 480.88 3840.08 480.88 3827.47 476.67 3819.07 472.47 3810.66 455.66 3802.25 434.64 3793.85 413.63 3789.65 358.99 3785.44 304.35 3785.44 262.32 3781.24 220.3 3772.83 220.3 3705.59 274.93 3705.59 300.15 3701.38 325.37 3697.18 342.18 3692.98 358.99 3684.57 367.4 3671.96 371.6 3667.76 371.6 3659.35 371.6 3650.95 371.6 3642.54 358.99 3621.53 337.98 3575.29 329.57 3550.08 321.17 3520.66 312.76 3470.22 304.35 3423.99 295.95 3402.97 287.54 3381.96 274.93 3365.15 258.12 3348.34 241.31 3335.73 220.3 3323.12 220.3 3457.61 245.51 3461.82 274.93 3461.82 300.15 3466.02 325.37 3461.82 358.99 3453.41 388.41 3445 417.83 3432.4 447.25 3415.58 472.47 3394.57 493.49 3373.55 510.3 3352.54 522.91 3327.32 531.31 3310.51 535.52 3293.7 535.52 3276.89 535.52 3255.87 535.52 3222.25 527.11 3184.42 514.5 3142.39 501.89 3100.36 476.67 3020.51 464.06 2974.27 455.66 2928.04 451.46 2881.81 455.66 2839.78 459.86 2797.75 468.27 2776.74 476.67 2755.72 485.08 2738.91 493.49 2722.1 506.09 2705.29 522.91 2688.48 543.92 2671.66 569.14 2654.85 594.36 2642.24 623.78 2629.63 653.2 2625.43 682.62 2625.43 707.84 2633.84 724.65 2638.04 737.26 2642.24 758.27 2659.05 779.28 2680.07 800.3 2701.08 817.11 2726.3 833.92 2747.32 846.53 2764.13 859.14 2780.94 867.55 2785.14 871.75 2789.35 880.16 2793.55 888.56 2789.35 892.76 2780.94 901.17 2772.53 905.37 2755.72 909.58 2738.91 913.78 2717.9 922.19 2692.68 930.59 2642.24 943.2 2583.4 960.01 2528.76 981.03 2474.13 1002.04 2436.3 1023.06 2402.68 1044.07 2373.26 1073.49 2343.83 1102.91 2322.82 1132.33 2301.81 1161.75 2284.99 1195.38 2272.39 1224.8 2259.78 1258.42 2255.57 1292.04 2251.37 1321.46 2255.57 1355.09 2259.78 1384.51 2268.18 1413.93 2280.79 1439.15 2293.4 1468.57 2318.62 1497.99 2348.04 1519 2377.46 1535.81 2415.28 1548.42 2448.91 1556.83 2486.73 1561.03 2524.56 1561.03 2562.39 1552.63 2596.01 1540.02 2625.43 1523.21 2654.85 1502.19 2684.27 1476.97 2709.49 1447.55 2730.5 1418.13 2751.52 1384.51 2772.53 1342.48 2789.35 1300.45 2806.16 1254.22 2822.97 1212.19 2839.78 1174.36 2860.8 1140.74 2881.81 1123.93 2894.42 1111.32 2907.03 1098.71 2923.84 1090.3 2940.65 1086.1 2957.46 1081.9 2974.27 1077.69 3016.3 1077.69 3054.13 1086.1 3096.16 1098.71 3138.19 1115.52 3171.81 1140.74 3205.44 1153.35 3218.05 1165.96 3226.45 1178.56 3234.86 1195.38 3243.26 1212.19 3247.47 1229 3251.67 1266.83 3251.67 1304.65 3251.67 1384.51 3239.06 1426.54 3234.86 1464.36 3230.65 1506.39 3230.65 1544.22 3234.86 1624.07 3243.26 1661.9 3243.26 1699.73 3243.26 1737.55 3239.06 1779.58 3230.65 1800.6 3222.25 1821.61 3213.84 1863.64 3192.83 1901.47 3163.41 1935.09 3133.99 1964.51 3100.36 1977.12 3083.55 1989.73 3066.74 1993.93 3049.93 2002.34 3033.12 2006.54 3016.3 2006.54 3003.7 2002.34 2982.68 1993.93 2965.87 1981.32 2949.06 1964.51 2932.25 1943.5 2919.64 1922.48 2902.83 1872.05 2873.41 1821.61 2839.78 1771.18 2806.16 1750.16 2785.14 1729.15 2764.13 1708.13 2743.11 1695.53 2717.9 1682.92 2696.88 1674.51 2671.66 1670.31 2642.24 1666.1 2617.03 1666.1 2591.81 1666.1 2562.39 1670.31 2537.17 1678.71 2507.75 1687.12 2482.53 1695.53 2457.31 1708.13 2436.3 1720.74 2415.28 1733.35 2394.27 1750.16 2377.46 1762.77 2364.85 1783.79 2356.44 1800.6 2348.04 1817.41 2343.83 1834.22 2343.83 1855.24 2343.83 1872.05 2348.04 1893.06 2352.24 1935.09 2364.85 1981.32 2381.66 2023.35 2398.47 2069.59 2419.49 2115.82 2436.3 2178.86 2448.91 2237.7 2465.72 2241.91 2461.52 2233.5 2440.5 2225.09 2419.49 2208.28 2398.47 2187.27 2381.66 2166.25 2369.05 2141.04 2356.44 2111.62 2348.04 2082.19 2339.63 2019.15 2327.02 1951.9 2314.41 1884.66 2306.01 1851.03 2297.6 1821.61 2289.2 1792.19 2276.59 1766.97 2259.78 1745.96 2247.17 1729.15 2234.56 1712.34 2213.54 1695.53 2196.73 1670.31 2154.7 1653.5 2108.47 1640.89 2058.04 1632.48 2003.4 1628.28 1948.76 1628.28 1894.12 1632.48 1839.48 1645.09 1784.84 1657.7 1734.41 1674.51 1683.97 1699.73 1637.74 1729.15 1599.92 1762.77 1562.09 1779.58 1549.48 1800.6 1536.87 1825.82 1520.06 1855.24 1507.45 1909.87 1486.44 1968.72 1465.42 1993.93 1457.02 2019.15 1440.2" style="fill: none; stroke: #000; stroke-linecap: round; stroke-linejoin: round; stroke-width: 19.8px;"/>
    <polyline points="922.19 1440.2 917.98 1448.61 913.78 1457.02 913.78 1469.63 917.98 1486.44 922.19 1499.05 926.39 1515.86 947.4 1541.07 968.42 1570.49 989.43 1599.92 1010.45 1629.34 1018.85 1641.94 1023.05 1654.55 1027.26 1667.16 1027.26 1679.77 1023.05 1692.38 1018.85 1700.79 1010.45 1709.19 1002.04 1713.4 985.23 1730.21 960.01 1742.82 930.59 1751.22 901.17 1755.42 867.55 1759.63 838.13 1759.63 817.11 1755.42 791.89 1751.22 775.08 1742.82 754.07 1734.41 720.44 1709.19 691.02 1683.97 661.6 1650.35 640.59 1612.52 627.98 1591.51 623.78 1570.49 619.57 1545.28 615.37 1520.06 615.37 1482.23 619.57 1440.2" style="fill: none; stroke: #000; stroke-linecap: round; stroke-linejoin: round; stroke-width: 19.8px;"/>
    <polyline points="1493.78 1440.2 1497.99 1457.02 1506.39 1469.63 1519 1486.44 1531.61 1503.25 1556.83 1541.07 1569.44 1562.09 1582.05 1583.1 1586.25 1604.12 1590.45 1620.93 1590.45 1637.74 1590.45 1658.76 1582.05 1696.58 1569.44 1730.21 1552.63 1763.83 1544.22 1776.44 1535.81 1789.05 1523.21 1797.45 1514.8 1805.86 1502.19 1810.06 1493.78 1814.27 1481.18 1814.27 1472.77 1810.06 1464.36 1805.86 1451.76 1797.45 1430.74 1776.44 1413.93 1751.22 1371.9 1696.58 1350.88 1667.16 1329.87 1637.74 1296.25 1612.52 1266.83 1587.31 1237.41 1562.09 1212.19 1532.67 1199.58 1511.65 1186.97 1486.44 1165.96 1440.2" style="fill: none; stroke: #000; stroke-linecap: round; stroke-linejoin: round; stroke-width: 19.8px;"/>
    <polyline points="1443.35 1440.2 1455.96 1465.42 1472.77 1482.23 1493.78 1490.64 1523.21 1494.84 1552.63 1494.84 1582.05 1490.64 1615.67 1486.44 1645.09 1473.83 1670.31 1461.22 1678.71 1452.81 1687.12 1440.2" style="fill: none; stroke: #000; stroke-linecap: round; stroke-linejoin: round; stroke-width: 19.8px;"/>
    <polyline points="2956.41 3415.58 2889.16 3386.16 2817.71 3360.95 2674.81 3310.51 2599.16 3285.29 2527.71 3251.67 2460.46 3218.05 2397.42 3180.22 2355.39 3150.8 2313.36 3121.38 2275.53 3083.55 2241.91 3049.93 2204.08 3012.1 2174.66 2970.07 2145.24 2928.04 2115.82 2881.81 2090.6 2839.78 2065.38 2789.35 2044.37 2743.11 2027.56 2692.68 2010.75 2642.24 1993.93 2591.81 1981.32 2537.17 1968.72 2482.53 1960.31 2432.1 1956.11 2377.46 1951.9 2322.82 1951.9 2268.18 1951.9 2213.54 1951.9 2158.91 1956.11 2104.27 1964.51 2049.63 1972.92 1994.99 1985.53 1940.35 2002.34 1885.71 2019.15 1835.28 2035.96 1784.84 2056.98 1734.41 2082.2 1683.97 2107.41 1637.74 2115.82 1637.74 2149.44 1667.16 2187.27 1696.58 2225.1 1717.6 2262.92 1734.41 2300.75 1747.02 2338.57 1755.42 2355.39 1755.42 2372.2 1755.42 2389.01 1755.42 2405.82 1751.22 2426.84 1742.82 2447.85 1734.41 2464.66 1721.8 2481.47 1704.99 2498.29 1688.18 2515.1 1671.37 2544.52 1629.34 2658 1440.2" style="fill: none; stroke: #000; stroke-linecap: round; stroke-linejoin: round; stroke-width: 19.8px;"/>
    <polyline points="2956.41 1898.32 2935.39 1885.71 2910.17 1873.11 2889.16 1860.5 2859.74 1847.89 2813.51 1826.87 2792.49 1822.67 2767.27 1814.26 2746.26 1814.26 2729.45 1814.26 2712.64 1818.47 2704.23 1826.87 2700.03 1843.68 2695.82 1864.7 2700.03 1885.71 2704.23 1915.14 2708.43 1940.35 2708.43 1965.57 2708.43 1990.79 2704.23 1999.19 2700.03 2007.6 2687.42 2020.21 2674.81 2028.61 2658 2032.82 2636.98 2032.82 2620.17 2032.82 2599.16 2028.61 2582.34 2024.41 2565.53 2016.01 2540.32 1994.99 2523.5 1973.98 2510.9 1948.76 2498.29 1923.54 2485.68 1902.53 2473.07 1881.51 2460.46 1864.7 2452.05 1860.5 2443.65 1856.29 2431.04 1856.29 2422.63 1856.29 2410.03 1860.5 2397.42 1868.9 2368 1881.51 2342.78 1898.32 2313.36 1919.34 2288.14 1931.95 2275.53 1940.35 2262.92 1944.56 2250.31 1948.76 2237.7 1948.76 2229.3 1944.56 2220.89 1944.56 2208.28 1931.95 2195.68 1915.14 2187.27 1889.92 2174.66 1864.7 2166.25 1835.28 2145.24 1776.44 2128.43 1742.82 2111.62 1709.19 2094.8 1679.77 2073.79 1654.55 2052.78 1637.74 2040.17 1629.34 2027.56 1620.93 2014.95 1616.73 1998.14 1616.73 1985.53 1616.73 1972.92 1616.73 1951.9 1625.13 1935.09 1629.34 1897.27 1650.35 1863.64 1667.16 1846.83 1675.57 1834.22 1675.57 1825.82 1675.57 1817.41 1667.16 1809.01 1662.96 1800.6 1650.35 1796.4 1637.74 1792.19 1625.13 1783.79 1591.51 1775.38 1553.68 1766.98 1515.86 1754.37 1478.03 1741.76 1440.2" style="fill: none; stroke: #000; stroke-linecap: round; stroke-linejoin: round; stroke-width: 19.8px;"/>
    <polyline points="2662.2 1440.2 2683.21 1452.81 2704.23 1461.22 2725.24 1465.42 2750.46 1461.22 2792.49 1452.81 2838.72 1444.41 2855.54 1444.41 2876.55 1444.41 2889.16 1448.61 2897.56 1457.02 2910.17 1469.63 2918.58 1482.23 2935.39 1515.86 2956.41 1549.48" style="fill: none; stroke: #000; stroke-linecap: round; stroke-linejoin: round; stroke-width: 19.8px;"/>
    <polyline points="2447.85 1440.2 2573.94 1541.07 2636.98 1591.51 2704.23 1637.74 2763.07 1675.57 2826.11 1709.19 2889.16 1738.61 2956.41 1763.83" style="fill: none; stroke: #000; stroke-linecap: round; stroke-linejoin: round; stroke-width: 19.8px;"/>
    <polyline points="2204.08 1440.2 2233.5 1482.23 2262.92 1520.06 2317.56 1587.31 2342.78 1625.13 2355.38 1646.15 2363.79 1667.16 2380.6 1709.19 2397.41 1747.02 2405.82 1763.83 2418.43 1776.44 2431.04 1784.85 2443.65 1789.05 2460.46 1789.05 2477.27 1780.64 2494.08 1772.24 2510.89 1763.83 2523.5 1751.22 2536.11 1734.41 2544.52 1721.8 2548.72 1704.99 2548.72 1696.58 2544.52 1688.18 2536.11 1671.37 2527.71 1658.76 2510.89 1641.94 2481.47 1608.32 2468.86 1591.51 2460.46 1574.7 2456.26 1557.89 2456.26 1541.07 2456.26 1524.26 2460.46 1507.45 2468.86 1486.44 2477.27 1469.63 2502.49 1440.2" style="fill: none; stroke: #000; stroke-linecap: round; stroke-linejoin: round; stroke-width: 19.8px;"/>
    <polyline points="636.39 1440.2 665.81 1457.02 695.23 1478.03 749.86 1515.86 800.3 1562.09 850.74 1616.73 926.39 1696.58 997.84 1784.84 1073.49 1868.9 1144.94 1952.96 1182.77 1990.79 1216.39 2028.61 1254.22 2062.24 1296.25 2091.66 1334.07 2116.88 1371.9 2137.89 1413.93 2154.7 1455.96 2167.31 1502.19 2175.72 1552.63 2175.72 1603.06 2171.51 1653.5 2163.11 1703.93 2150.5 1754.37 2137.89 1863.64 2100.06 1977.12 2066.44 2031.76 2049.63 2090.6 2037.02 2149.44 2024.41 2208.28 2016.01 2267.12 2016.01 2325.97 2016.01 2363.79 2020.21 2401.62 2028.61 2435.24 2041.22 2468.87 2058.04 2485.68 2074.85 2502.49 2091.66 2515.1 2112.67 2523.5 2133.69 2527.71 2158.91 2536.11 2184.12 2536.11 2213.54 2536.11 2242.96 2536.11 2306.01 2531.91 2369.05 2519.3 2499.34 2519.3 2579.2 2519.3 2654.85 2519.3 2730.5 2519.3 2797.75 2515.1 2865 2510.89 2898.62 2506.69 2932.25 2498.29 2961.67 2489.88 2995.29 2477.27 3024.71 2460.46 3054.13 2439.45 3083.55 2422.63 3108.77 2380.6 3163.41 2359.59 3192.83 2342.78 3218.05 2325.97 3247.47 2317.56 3272.68 2309.15 3297.9 2309.15 3323.12 2309.15 3348.34 2313.36 3373.55 2317.56 3398.77 2325.97 3423.99 2346.98 3474.43 2372.2 3524.86 2401.62 3579.5 2426.84 3634.14 2452.05 3688.77 2477.27 3747.62 2494.08 3806.46 2510.89 3865.3 2519.3 3928.34 2523.5 3987.18 2527.71 4050.23 2527.71 4109.07 2523.5 4167.91 2594.95 4167.91 2599.16 4138.49 2594.95 4109.07 2590.75 4088.05 2582.34 4075.44 2578.14 4071.24 2569.74 4062.84 2557.13 4058.63 2544.52 4058.63 2531.91 4058.63 2498.29 4062.84 2460.46 4071.24 2389.01 4092.26 2355.39 4104.87 2321.76 4113.27 2296.55 4117.47 2283.94 4121.68 2275.53 4121.68 2267.12 4121.68 2262.92 4117.47 2258.72 4113.27 2258.72 4109.07 2262.92 4096.46 2267.12 4083.85 2288.14 4054.43 2296.55 4037.62 2304.95 4020.81 2309.15 4003.99 2309.15 3987.18 2300.75 3970.37 2292.34 3957.76 2279.73 3945.15 2262.92 3936.75 2246.11 3928.34 2229.3 3924.14 2212.49 3924.14 2195.67 3924.14 2183.07 3928.34 2170.46 3940.95 2157.85 3953.56 2149.44 3970.37 2132.63 4008.2 2120.02 4029.21 2111.62 4046.02 2094.8 4062.84 2077.99 4079.65 2061.18 4092.26 2044.37 4100.66 2023.35 4109.07 2006.54 4109.07 1989.73 4109.07 1972.92 4100.66 1960.31 4088.05 1951.9 4075.44 1930.89 4041.82 1922.48 4025.01 1914.08 4012.4 1901.47 4003.99 1897.27 3999.79 1888.86 3999.79 1880.45 4003.99 1867.85 4008.2 1842.63 4025.01 1821.61 4041.82 1809.01 4046.02 1800.6 4046.02 1792.19 4046.02 1787.99 4041.82 1775.38 4029.21 1762.77 4012.4 1754.37 3995.59 1745.96 3974.57 1741.76 3957.76 1733.35 3945.15 1729.15 3940.95 1729.15 3936.75 1724.95 3936.75 1720.74 3940.95 1716.54 3940.95 1712.34 3949.36 1708.13 3966.17 1699.73 3987.18 1682.92 4033.42 1674.51 4054.43 1661.9 4071.24 1645.09 4083.85 1628.28 4092.26 1607.26 4092.26 1590.45 4092.26 1569.44 4083.85 1548.42 4075.44 1502.19 4054.43 1472.77 4033.42 1443.35 4016.6 1430.74 4012.4 1418.13 4008.2 1405.52 4003.99 1392.91 4008.2 1380.3 4012.4 1371.9 4020.81 1359.29 4029.21 1350.88 4041.82 1334.07 4071.24 1321.46 4104.87 1308.85 4134.29 1304.65 4167.91 1229 4167.91 1229 4138.49 1229 4109.07 1224.8 4067.04 1216.39 4029.21 1207.99 4012.4 1199.58 3999.79 1191.17 3987.18 1182.77 3982.98 1174.36 3978.78 1170.16 3982.98 1153.35 3987.18 1136.53 3995.59 1119.72 4008.2 1081.9 4037.62 1065.08 4050.23 1044.07 4054.43 1027.26 4058.63 1006.24 4058.63 989.43 4050.23 968.42 4041.82 930.59 4025.01 909.58 4016.6 888.56 4008.2 863.34 4003.99 838.13 4003.99 812.91 4008.2 787.69 4012.4 766.68 4020.81 745.66 4033.42 728.85 4050.23 716.24 4067.04 703.63 4088.05 699.43 4113.27 699.43 4142.69 699.43 4167.91 611.17 4167.91 615.37 4125.88 615.37 4079.65 615.37 4046.02 615.37 4008.2 615.37 3991.39 623.78 3974.57 627.98 3961.97 640.59 3949.36 661.6 3932.54 686.82 3915.73 699.43 3911.53 707.84 3903.12 716.24 3894.72 720.44 3886.31 720.44 3877.91 716.24 3865.3 712.04 3856.89 703.63 3848.49 695.23 3840.08 682.62 3831.67 657.4 3814.86 640.59 3810.66 627.98 3806.46 611.17 3806.46 598.56 3806.46 581.75 3806.46 573.34 3810.66 560.73 3814.86 556.53 3823.27 548.12 3835.88 548.12 3848.49 552.33 3869.5 556.53 3886.31 569.14 3932.54 573.34 3953.56 577.54 3974.57 573.34 3999.79 569.14 4020.81 560.73 4041.82 548.12 4062.84 535.52 4079.65 518.7 4092.26 497.69 4104.87 480.88 4109.07 464.06 4113.27 451.46 4113.27 422.04 4109.07 388.41 4104.87 354.79 4104.87 333.77 4104.87 312.76 4109.07 291.74 4113.27 279.14 4125.88 274.93 4134.29 270.73 4146.89 270.73 4167.91 220.3 4167.91 220.3 4046.02 346.38 4037.62 468.27 4025.01 594.36 4008.2 716.24 3987.18 833.92 3957.76 896.97 3940.95 955.81 3924.14 1014.65 3903.12 1073.49 3882.11 1128.13 3856.89 1186.97 3831.67 1271.03 3793.85 1355.09 3747.62 1519 3659.35 1603.06 3617.32 1682.92 3579.5 1724.95 3562.69 1766.97 3545.87 1809.01 3533.27 1851.03 3520.66 1901.47 3512.25 1947.7 3503.85 1998.14 3499.64 2048.57 3499.64 2099.01 3499.64 2153.65 3499.64 2204.08 3503.85 2258.72 3512.25 2363.79 3524.86 2473.07 3545.87 2586.55 3566.89 2704.23 3587.9 2830.32 3608.92 2893.36 3617.32 2956.41 3621.53" style="fill: none; stroke: #000; stroke-linecap: round; stroke-linejoin: round; stroke-width: 19.8px;"/>
    <polyline points="2956.41 2549.78 2918.58 2558.18 2884.96 2566.59 2851.33 2579.2 2817.71 2596.01 2796.69 2612.82 2775.68 2633.84 2754.67 2654.85 2733.65 2675.87 2716.84 2701.08 2700.03 2726.3 2687.42 2751.52 2674.81 2780.94 2666.4 2810.36 2658 2843.98 2645.39 2911.23 2641.19 2936.45 2636.98 2957.46 2628.58 2965.87 2620.17 2974.27 2611.77 2982.68 2599.16 2982.68 2586.55 2986.88 2573.94 2986.88 2544.52 2982.68 2510.89 2974.27 2477.27 2961.67 2447.85 2944.85 2414.23 2932.25 2393.21 2919.64 2372.2 2907.03 2355.39 2890.22 2338.57 2877.61 2321.76 2860.8 2309.15 2848.19 2300.75 2827.17 2292.34 2810.36 2283.94 2785.14 2279.73 2759.93 2279.73 2734.71 2283.94 2705.29 2288.14 2675.87 2292.34 2646.45 2300.75 2617.03 2309.15 2591.81 2321.76 2562.39 2334.37 2537.17 2351.18 2516.16 2367.99 2495.14 2384.81 2478.33 2405.82 2465.72 2422.63 2457.31 2443.65 2453.11 2460.46 2448.91 2477.27 2453.11 2510.89 2461.52 2544.52 2474.13 2582.34 2482.53 2611.77 2490.94 2645.39 2499.34 2674.81 2503.55 2708.43 2503.55 2733.65 2499.34 2758.87 2490.94 2779.88 2478.33 2796.69 2461.52 2805.1 2444.71 2809.3 2427.89 2813.51 2411.08 2813.51 2390.07 2813.51 2369.05 2809.3 2352.24 2800.9 2310.21 2784.09 2272.39 2775.68 2255.57 2767.27 2238.76 2754.67 2226.15 2742.06 2217.75 2729.45 2209.34 2716.84 2205.14 2700.03 2205.14 2683.21 2209.34 2653.79 2221.95 2620.17 2238.76 2603.36 2242.96 2586.55 2247.17 2569.74 2247.17 2552.92 2242.96 2519.3 2234.56 2485.68 2230.36 2468.87 2226.15 2456.26 2230.36 2439.45 2234.56 2422.63 2247.17 2405.82 2259.78 2389.01 2276.59 2351.18 2310.21 2334.37 2327.02 2309.15 2339.63 2296.55 2343.83 2279.73 2348.04 2258.72 2348.04 2241.91 2348.04 2204.08 2343.83 2170.46 2335.43 2141.04 2322.82 2124.23 2314.41 2115.82 2306.01 2103.21 2297.6 2099.01 2284.99 2090.6 2276.59 2090.6 2263.98 2090.6 2255.57 2094.8 2247.17 2103.21 2226.15 2115.82 2209.34 2132.63 2188.33 2166.25 2146.3 2183.07 2125.28 2191.47 2108.47 2195.67 2095.86 2195.67 2083.25 2195.67 2074.85 2195.67 2062.24 2183.07 2037.02 2170.46 2016.01 2149.44 1990.79 2128.43 1965.57 2077.99 1915.14 2035.96 1873.11 2014.95 1852.09 1998.14 1831.08 1981.32 1818.47 1964.51 1805.86 1951.9 1801.66 1947.7 1801.66 1943.5 1805.86 1935.09 1810.06 1935.09 1814.27 1926.69 1831.08 1922.48 1852.09 1914.08 1877.31 1909.87 1906.73 1901.47 1931.95 1888.86 1957.16 1872.05 1973.98 1851.03 1986.59 1830.02 1994.99 1787.99 2007.6 1766.97 2011.8 1750.16 2020.21 1737.55 2024.41 1729.15 2037.02 1729.15 2049.63 1729.15 2066.44 1737.55 2083.25 1745.96 2104.27 1754.37 2125.28 1762.77 2146.3 1766.97 2171.51 1762.77 2188.33 1754.37 2209.34 1741.76 2221.95 1712.34 2251.37 1699.73 2263.98 1682.92 2276.59 1674.51 2289.2 1670.31 2297.6 1670.31 2301.81 1670.31 2310.21 1678.71 2314.41 1682.92 2318.62 1695.53 2322.82 1703.93 2331.23 1729.15 2339.63 1758.57 2352.24 1787.99 2369.05 1813.21 2385.86 1838.43 2406.88 1846.83 2423.69 1855.24 2440.5 1859.44 2457.31 1859.44 2474.13 1859.44 2490.94 1859.44 2507.75 1851.03 2520.36 1842.63 2528.76 1834.22 2532.97 1821.61 2537.17 1809.01 2537.17 1796.4 2537.17 1766.97 2528.76 1741.76 2516.16 1712.34 2499.34 1687.12 2482.53 1678.71 2469.92 1670.31 2457.31 1666.1 2444.71 1661.9 2432.1 1657.7 2415.28 1657.7 2394.27 1657.7 2377.46 1653.5 2356.44 1649.29 2335.43 1636.68 2314.41 1619.87 2297.6 1603.06 2280.79 1582.05 2263.98 1556.83 2255.57 1535.81 2251.37 1510.6 2251.37 1489.58 2255.57 1464.36 2263.98 1426.54 2280.79 1405.52 2289.2 1388.71 2297.6 1371.9 2297.6 1355.09 2297.6 1342.48 2293.4 1334.07 2284.99 1325.67 2272.39 1313.06 2255.57 1279.43 2192.53 1266.83 2171.51 1250.01 2154.7 1237.41 2137.89 1220.59 2121.08 1203.78 2108.47 1186.97 2100.06 1165.96 2091.66 1144.94 2087.46 1115.52 2083.25 1086.1 2083.25 1056.68 2087.46 1027.26 2091.66 997.84 2104.27 972.62 2116.88 955.81 2133.69 939 2154.7 934.79 2171.51 930.59 2192.53 926.39 2213.54 926.39 2234.56 939 2322.82 939 2343.83 934.79 2364.85 934.79 2385.86 926.39 2406.88 917.98 2427.89 909.58 2448.91 896.97 2465.72 880.16 2482.53 850.74 2511.95 833.92 2520.36 817.11 2532.97 800.3 2537.17 783.49 2541.37 770.88 2541.37 762.47 2541.37 754.07 2532.97 749.86 2520.36 745.66 2503.55 745.66 2482.53 741.46 2398.47 737.26 2364.85 728.85 2335.43 707.84 2280.79 703.63 2255.57 699.43 2230.36 699.43 2179.92 699.43 2129.49 695.23 2074.85 691.02 2049.63 686.82 2028.61 678.41 2007.6 670.01 1986.59 657.4 1969.77 640.59 1952.96 623.78 1936.15 602.76 1927.74 577.54 1919.34 552.33 1915.14 527.11 1910.93 501.89 1915.14 476.67 1919.34 459.86 1927.74 443.05 1940.35 438.85 1944.56 434.64 1952.96 434.64 1969.77 438.85 1982.38 447.25 2016.01 455.66 2037.02 459.86 2053.83 459.86 2066.44 455.66 2083.25 451.46 2091.66 447.25 2095.86 430.44 2108.47 409.43 2116.88 384.21 2121.08 363.19 2121.08 337.98 2121.08 321.17 2112.67 304.35 2104.27 295.95 2095.86 291.74 2087.46 287.54 2066.44 291.74 2045.43 291.74 2020.21 300.15 1965.57 295.95 1944.56 295.95 1936.15 291.74 1927.74 279.14 1915.14 262.32 1902.53 241.31 1898.32 220.3 1894.12 220.3 2037.02 308.56 2045.43 392.62 2045.43 480.88 2045.43 564.94 2037.02 644.79 2020.21 682.62 2011.8 724.65 1999.19 762.47 1986.59 796.1 1973.98 833.92 1957.16 867.55 1940.35 901.17 1919.34 934.79 1898.32 997.84 1847.89 1060.88 1789.05 1115.52 1730.21 1174.36 1667.16 1233.2 1599.92 1292.04 1532.67 1350.88 1465.42 1363.49 1452.81 1376.1 1440.2" style="fill: none; stroke: #000; stroke-linecap: round; stroke-linejoin: round; stroke-width: 19.8px;"/>
    <polyline points="2956.41 3932.54 2943.8 3978.78 2935.39 4025.01 2922.78 4096.46 2914.38 4167.91 2834.52 4167.91 2838.72 4134.29 2838.72 4104.87 2834.52 4088.05 2830.32 4071.24 2821.91 4054.43 2813.51 4037.62 2792.49 4008.2 2771.48 3982.98 2742.06 3957.76 2716.84 3932.54 2695.82 3911.53 2687.42 3903.12 2679.01 3894.72 2674.81 3886.31 2674.81 3882.11 2674.81 3877.91 2674.81 3873.7 2679.01 3873.7 2687.42 3873.7 2704.23 3869.5 2725.25 3873.7 2746.26 3873.7 2796.69 3873.7 2817.71 3869.5 2834.52 3865.3 2847.13 3852.69 2851.33 3840.08 2855.54 3819.07 2859.74 3802.25 2859.74 3756.02 2859.74 3730.8 2859.74 3709.79 2863.94 3688.77 2872.35 3667.76 2884.96 3646.75 2893.36 3629.93 2905.97 3613.12 2922.78 3596.31 2939.59 3583.7 2956.41 3575.3" style="fill: none; stroke: #000; stroke-linecap: round; stroke-linejoin: round; stroke-width: 19.8px;"/>
    <polyline points="2956.41 1494.84 2926.99 1549.48 2905.97 1608.32 2880.75 1667.16 2863.94 1726 2847.13 1780.64 2834.52 1835.28 2821.91 1894.12 2813.51 1952.96 2805.1 2007.6 2805.1 2066.44 2800.9 2121.08 2805.1 2175.72 2813.51 2230.36 2821.91 2284.99 2834.52 2335.43 2851.33 2385.86 2868.14 2432.1 2893.36 2474.13 2922.78 2516.16 2956.41 2553.98" style="fill: none; stroke: #000; stroke-linecap: round; stroke-linejoin: round; stroke-width: 19.8px;"/>
    <polyline points="371.6 1440.2 358.99 1452.81 342.18 1465.42 325.37 1473.83 304.35 1482.23 262.32 1490.64 220.29 1494.84 220.29 1440.2" style="fill: none; stroke: #000; stroke-linecap: round; stroke-linejoin: round; stroke-width: 19.8px;"/>
    <polyline points="2956.41 3503.85 2926.99 3503.85 2901.77 3503.85 2880.75 3503.85 2863.94 3495.44 2855.54 3487.03 2847.13 3478.63 2838.72 3457.61 2834.52 3428.19 2834.52 3398.77 2838.72 3360.95 2838.72 3323.12 2838.72 3285.29 2834.52 3251.67 2826.11 3226.45 2821.91 3205.44 2809.3 3184.42 2800.9 3163.41 2775.68 3129.78 2758.87 3112.97 2742.06 3096.16 2725.25 3083.55 2708.43 3075.15 2691.62 3066.74 2670.61 3058.33 2653.79 3054.13 2636.98 3054.13 2615.97 3054.13 2599.16 3058.33 2582.34 3066.74 2565.53 3079.35 2548.72 3087.75 2536.11 3104.57 2506.69 3138.19 2485.68 3180.22 2477.27 3201.23 2473.07 3222.25 2468.87 3243.26 2464.66 3260.07 2464.66 3281.09 2468.87 3302.1 2473.07 3318.92 2477.27 3335.73 2485.68 3348.34 2498.29 3360.95 2523.5 3377.76 2552.92 3394.57 2586.55 3411.38 2649.59 3445 2679.01 3466.02 2691.62 3474.43 2700.03 3487.03 2712.63 3508.05 2721.04 3529.06 2725.25 3554.28 2725.25 3579.5 2721.04 3604.72 2716.84 3625.73 2708.43 3650.95 2700.03 3671.96 2687.42 3688.77 2670.61 3701.38 2658 3713.99 2641.19 3726.6 2620.17 3735.01 2599.16 3743.41 2578.14 3747.62 2557.13 3751.82 2536.11 3756.02 2515.1 3756.02 2489.88 3756.02 2468.87 3751.82 2422.63 3743.41 2380.6 3726.6 2342.78 3709.79 2309.15 3688.77 2250.31 3642.54 2216.69 3625.73 2187.27 3608.92 2170.46 3600.51 2157.85 3596.31 2141.04 3596.31 2124.23 3592.11 2094.8 3596.31 2069.59 3604.72 2010.75 3621.53 1985.53 3625.73 1956.11 3629.93 1930.89 3634.14 1918.28 3629.93 1905.67 3625.73 1893.06 3621.53 1880.45 3613.12 1867.85 3600.51 1855.24 3587.9 1838.43 3558.48 1821.61 3524.86 1813.21 3487.03 1813.21 3466.02 1813.21 3449.21 1813.21 3432.4 1817.41 3415.58 1821.61 3398.77 1830.02 3381.96 1842.63 3360.95 1859.44 3344.13 1884.66 3327.32 1905.67 3314.71 1960.31 3293.7 2014.95 3276.89 2065.38 3255.87 2086.4 3247.47 2107.41 3239.06 2124.23 3226.45 2136.83 3218.05 2145.24 3201.23 2145.24 3184.42 2141.04 3167.61 2132.63 3150.8 2107.41 3108.77 2094.8 3083.55 2086.4 3062.54 2077.99 3041.52 2077.99 3020.51 2077.99 3003.7 2086.4 2986.88 2090.6 2974.27 2103.21 2957.46 2128.43 2932.25 2157.85 2902.83 2187.27 2877.61 2212.49 2852.39 2225.09 2839.78 2233.5 2822.97 2237.7 2810.36 2237.7 2793.55 2237.7 2785.14 2233.5 2772.53 2229.3 2759.93 2220.89 2751.52 2204.08 2730.5 2183.07 2709.49 2153.65 2692.68 2128.43 2680.07 2099.01 2675.87 2082.19 2671.66 2069.59 2675.87 2048.57 2680.07 2027.56 2688.48 1989.73 2705.29 1972.92 2717.9 1951.9 2722.1 1935.09 2726.3 1918.28 2726.3 1901.47 2722.1 1884.66 2713.69 1851.03 2688.48 1821.61 2667.46 1809.01 2659.05 1796.4 2650.65 1783.79 2650.65 1775.38 2654.85 1762.77 2659.05 1754.37 2667.46 1745.96 2680.07 1741.76 2696.88 1733.35 2713.69 1729.15 2734.71 1716.54 2776.74 1708.13 2822.97 1699.73 2869.2 1691.32 2915.43 1682.92 2957.46 1674.51 2991.09 1666.1 3024.71 1657.7 3058.33 1645.09 3117.18 1640.89 3146.6 1636.68 3176.02 1636.68 3209.64 1636.68 3243.26 1640.89 3276.89 1645.09 3310.51 1653.5 3348.34 1661.9 3381.96 1674.51 3415.58 1691.32 3449.21 1724.95 3503.85 1758.57 3554.28 1796.4 3604.72 1809.01 3629.93 1821.61 3655.15 1838.43 3697.18 1846.83 3739.21 1851.03 3781.24 1855.24 3827.47 1855.24 3873.7 1855.24 3919.94 1846.83 4012.4 1846.83 4092.26 1842.63 4167.91 1901.47 4167.91 1909.87 4138.49 1918.28 4109.07 1930.89 4079.65 1943.5 4054.43 1960.31 4029.21 1981.32 4012.4 1998.14 3991.39 2023.35 3978.78 2040.17 3974.57 2056.98 3970.37 2073.79 3966.17 2090.6 3966.17 2128.43 3966.17 2166.25 3974.57 2204.08 3991.39 2241.91 4008.2 2275.53 4029.21 2300.75 4054.43 2321.76 4079.65 2338.57 4109.07 2351.18 4138.49 2359.59 4167.91 2418.43 4167.91 2414.23 4134.29 2410.03 4104.87 2401.62 4003.99 2401.62 3949.36 2401.62 3894.72 2405.82 3819.07 2405.82 3777.04 2405.82 3739.21 2401.62 3701.38 2393.21 3667.76 2384.81 3655.15 2376.4 3638.34 2363.79 3625.73 2351.18 3617.32 2330.17 3600.51 2304.95 3592.11 2279.73 3587.9 2267.12 3587.9 2254.52 3592.11 2233.5 3600.51 2212.49 3613.12 2199.88 3629.93 2187.27 3650.95 2178.86 3671.96 2170.46 3688.77 2162.05 3726.6 2153.65 3764.43 2149.44 3781.24 2141.04 3798.05 2124.23 3819.07 2103.21 3835.88 2077.99 3848.49 2048.57 3861.09 1985.53 3877.91 1918.28 3898.92 1872.05 3919.94 1830.02 3945.15 1809.01 3957.76 1792.19 3974.57 1779.58 3991.39 1766.97 4008.2 1758.57 4025.01 1750.16 4046.02 1745.96 4062.84 1745.96 4083.85 1741.76 4125.88 1745.96 4167.91 1695.53 4167.91 1691.32 4104.87 1687.12 4041.82 1678.71 3974.57 1666.1 3903.12 1653.5 3823.27 1636.68 3743.41 1615.67 3663.56 1594.65 3587.9 1582.05 3554.28 1565.23 3520.66 1552.63 3491.24 1535.81 3461.82 1514.8 3436.6 1497.99 3419.79 1476.97 3402.97 1455.96 3390.37 1426.54 3381.96 1401.32 3381.96 1367.7 3381.96 1338.28 3390.37 1304.65 3402.97 1271.03 3419.79 1233.2 3436.6 1199.58 3457.61 1123.93 3503.85 1044.07 3554.28 968.42 3604.72 888.56 3650.95 829.72 3680.37 775.08 3705.59 720.44 3722.4 665.81 3739.21 611.17 3747.62 556.53 3751.82 501.89 3751.82 451.46 3743.41 422.04 3735.01 392.62 3726.6 363.19 3713.99 333.77 3701.38 274.93 3671.96 220.3 3638.34 220.3 3558.48 258.12 3566.89 291.74 3566.89 367.4 3571.09 405.22 3571.09 422.04 3575.29 438.85 3579.5 472.47 3596.31 510.3 3613.12 527.11 3621.53 543.92 3625.73 564.94 3629.93 585.95 3634.14 602.76 3629.93 623.78 3625.73 661.6 3613.12 678.41 3608.92 695.23 3604.72 707.84 3604.72 720.44 3608.92 724.65 3617.32 728.85 3625.73 733.05 3638.34 733.05 3655.15 733.05 3688.77 728.85 3726.6 724.65 3764.43 724.65 3802.25 724.65 3814.86 728.85 3827.47 733.05 3835.88 741.46 3840.08 758.27 3844.28 775.08 3840.08 796.1 3835.88 821.31 3827.47 842.33 3819.07 863.34 3814.86 880.16 3810.66 896.97 3814.86 905.37 3819.07 909.58 3831.67 909.58 3844.28 909.58 3861.09 905.37 3898.92 901.17 3940.95 896.97 3978.78 892.76 4012.4 896.97 4046.02 901.17 4079.65 905.37 4100.66 913.78 4125.88 930.59 4167.91 821.31 4167.91 821.31 4130.08 817.11 4088.05 808.71 3961.97 808.71 3932.54 812.91 3903.12 817.11 3869.5 825.52 3840.08 842.33 3810.66 863.34 3781.24 884.36 3751.82 913.78 3726.6 943.2 3701.38 972.62 3680.37 1006.24 3659.35 1044.07 3642.54 1077.69 3629.93 1115.52 3617.32 1149.14 3613.12 1182.77 3608.92 1216.39 3613.12 1245.81 3617.32 1275.23 3629.93 1296.25 3646.74 1313.06 3663.56 1325.67 3680.37 1346.68 3718.2 1363.49 3764.43 1376.1 3810.66 1392.91 3856.89 1405.52 3894.72 1413.93 3915.73 1422.33 3932.54 1430.74 3945.15 1439.15 3957.76 1455.96 3966.17 1472.77 3974.57 1493.78 3974.57 1514.8 3970.37 1540.02 3961.97 1565.23 3949.36 1590.45 3936.75 1619.87 3919.94 1678.71 3882.11 1741.76 3835.88 1804.8 3793.85 1872.05 3756.02 1914.08 3735.01 1960.31 3713.99 2002.34 3701.38 2044.37 3697.18 2065.38 3692.98 2086.4 3692.98 2107.41 3697.18 2124.23 3701.38 2145.24 3705.59 2162.05 3713.99 2178.86 3722.4 2195.67 3735.01 2212.49 3747.62 2229.3 3764.43 2258.72 3806.46 2313.36 3890.51 2338.57 3932.54 2351.18 3949.36 2363.79 3966.17 2376.4 3978.78 2393.21 3991.39 2405.82 3999.79 2422.63 4003.99 2435.24 4003.99 2447.85 4003.99 2464.66 3995.59 2481.47 3987.18 2498.29 3978.78 2515.1 3966.17 2548.72 3936.75 2620.17 3873.7 2658 3840.08 2700.03 3814.86 2729.45 3798.05 2758.87 3785.44 2792.49 3777.04 2821.91 3772.83 2855.54 3768.63 2889.16 3772.83 2922.78 3772.83 2956.41 3781.24" style="fill: none; stroke: #000; stroke-linecap: round; stroke-linejoin: round; stroke-width: 19.8px;"/>
    <polyline points="2956.41 3062.54 2905.97 3028.91 2859.74 2995.29 2821.91 2965.87 2805.1 2953.26 2788.29 2936.45 2775.68 2923.84 2763.07 2907.03 2754.67 2894.42 2746.26 2881.81 2742.06 2869.2 2742.06 2856.59 2742.06 2843.98 2742.06 2831.38 2754.67 2814.56 2771.48 2797.75 2792.49 2780.94 2817.71 2768.33 2847.13 2751.52 2880.75 2738.91 2918.58 2722.1 2956.41 2705.29" style="fill: none; stroke: #000; stroke-linecap: round; stroke-linejoin: round; stroke-width: 19.8px;"/>
    <polyline points="796.1 1440.2 808.71 1465.42 825.52 1490.64 842.33 1511.65 859.14 1528.47 880.16 1541.07 896.97 1549.48 917.98 1557.89 939 1557.89 955.81 1553.68 972.62 1549.48 985.23 1545.28 1002.04 1536.87 1031.46 1515.86 1065.09 1490.64 1094.51 1465.42 1128.13 1444.41 1161.75 1427.6 1178.56 1419.19 1195.38 1414.99 1212.19 1414.99 1229 1414.99 1245.81 1419.19 1262.62 1423.39 1279.44 1427.6 1296.25 1436 1329.87 1452.81 1359.29 1478.03 1384.51 1507.45 1409.73 1536.87 1430.74 1570.49 1447.55 1616.73 1464.36 1662.96 1481.18 1704.99 1493.78 1721.8 1502.19 1738.61 1519 1751.22 1531.61 1763.83 1565.24 1784.85 1607.26 1801.66 1645.09 1814.27 1687.12 1831.08 1724.95 1852.09 1754.37 1877.31 1771.18 1894.12 1783.79 1910.93 1796.4 1944.56 1809.01 1982.38 1821.61 2058.04 1830.02 2095.86 1838.43 2129.49 1846.83 2142.09 1855.24 2154.7 1863.64 2163.11 1876.25 2167.31 1893.06 2171.51 1914.08 2171.51 1956.11 2171.51 2006.54 2167.31 2027.56 2171.51 2048.57 2175.72 2065.38 2184.12 2082.2 2196.73 2107.41 2226.15 2132.63 2251.37 2145.24 2263.98 2157.85 2268.18 2174.66 2272.39 2187.27 2272.39 2199.88 2272.39 2216.69 2263.98 2229.3 2255.57 2246.11 2247.17 2275.53 2221.95 2342.78 2167.31 2380.6 2142.09 2397.42 2133.69 2414.23 2125.28 2431.04 2121.08 2447.85 2121.08 2464.66 2121.08 2481.48 2121.08 2498.29 2125.28 2515.1 2133.69 2544.52 2146.3 2578.14 2167.31 2607.56 2188.33 2632.78 2217.75 2658 2247.17 2679.01 2272.39 2695.82 2301.81 2708.43 2331.23 2716.84 2360.65 2725.25 2390.07 2725.25 2423.69 2721.04 2457.31 2708.43 2490.94 2695.82 2528.76 2674.81 2562.39 2658 2596.01 2636.98 2629.64 2624.37 2659.06 2615.97 2671.66 2611.77 2684.27 2607.56 2696.88 2607.56 2705.29 2611.77 2713.69 2615.97 2717.9 2624.37 2722.1 2636.98 2726.3 2653.8 2726.3 2674.81 2726.3 2716.84 2722.1 2763.07 2717.9 2817.71 2717.9 2868.14 2726.3 2914.38 2738.91 2956.41 2755.72" style="fill: none; stroke: #000; stroke-linecap: round; stroke-linejoin: round; stroke-width: 19.8px;"/>
    <polyline points="1977.12 1440.2 1989.73 1465.42 1998.14 1490.64 2014.95 1515.86 2027.56 1541.07 2065.38 1587.31 2107.41 1629.34 2111.62 1629.34 2128.43 1604.12 2141.04 1583.1 2195.67 1511.65 2254.52 1440.2" style="fill: none; stroke: #000; stroke-linecap: round; stroke-linejoin: round; stroke-width: 19.8px;"/>
    <polyline points="2956.41 3718.2 2872.35 3705.59 2826.12 3697.18 2779.88 3684.57 2725.25 3667.76 2670.61 3655.15 2645.39 3650.95 2624.37 3646.75 2603.36 3650.95 2590.75 3659.35 2582.34 3671.96 2578.14 3684.57 2578.14 3701.38 2573.94 3718.2 2578.14 3764.43 2578.14 3806.46 2582.34 3873.7 2582.34 3903.13 2586.55 3932.55 2590.75 3961.97 2599.16 3982.98 2611.77 4003.99 2628.58 4020.81 2645.39 4029.21 2666.4 4037.62 2704.23 4050.23 2746.26 4062.84 2763.07 4071.24 2779.88 4083.85 2792.49 4100.66 2800.9 4121.68 2805.1 4142.69 2805.1 4167.91 2683.22 4167.91 2691.62 4134.29 2700.03 4104.87 2712.64 4075.45 2725.25 4046.02 2737.85 4020.81 2754.67 3999.79 2775.68 3982.98 2796.69 3966.17 2813.51 3961.97 2830.32 3957.76 2847.13 3953.56 2868.14 3953.56 2889.16 3957.76 2910.17 3961.97 2956.41 3974.57" style="fill: none; stroke: #000; stroke-linecap: round; stroke-linejoin: round; stroke-width: 19.8px;"/>
    <polyline points="480.88 1440.2 459.86 1541.07 451.46 1591.51 447.25 1641.94 447.25 1688.18 447.25 1738.61 455.66 1784.85 464.07 1831.08 480.88 1885.71 501.89 1936.15 552.33 2037.02 581.75 2087.46 602.76 2137.89 627.98 2188.33 644.79 2238.76 648.99 2263.98 653.2 2293.4 657.4 2322.82 657.4 2348.04 657.4 2406.88 653.2 2465.72 644.79 2528.76 632.18 2596.01 619.57 2667.46 611.17 2738.91 602.76 2806.16 594.36 2873.41 590.15 3007.9 585.95 3079.35 585.95 3146.6 590.15 3213.84 594.36 3276.89 598.56 3335.73 606.97 3386.16 611.17 3411.38 615.37 3436.6 619.57 3457.61 623.78 3474.43 632.18 3491.24 640.59 3508.05 644.79 3520.66 653.2 3533.27 661.6 3537.47 674.21 3545.88 682.62 3545.88 691.02 3545.88 707.84 3541.67 724.65 3533.27 741.46 3516.45 758.27 3499.64 779.29 3478.63 800.3 3453.41 821.31 3423.99 842.33 3394.57 892.76 3331.52 947.4 3268.48 1006.24 3205.44 1035.67 3176.02 1069.29 3150.8 1119.72 3117.18 1170.16 3083.55 1224.8 3062.54 1279.44 3041.52 1334.07 3024.71 1388.71 3016.3 1447.55 3007.9 1502.19 3007.9 1556.83 3012.1 1607.26 3020.51 1657.7 3033.12 1703.93 3049.93 1750.16 3070.94 1792.19 3096.16 1830.02 3125.58 1863.64 3155 1884.66 3184.42 1901.47 3213.84 1918.28 3243.26 1935.09 3276.89 1947.7 3314.71 1956.11 3348.34 1972.92 3423.99 1985.53 3503.85 1989.73 3587.9 2002.34 3751.82 2010.75 3856.89 2019.15 3961.97 2040.17 4167.91 2153.65 4167.91 2149.44 4117.47 2153.65 4062.84 2157.85 4037.62 2162.05 4012.4 2170.46 3987.18 2178.86 3961.97 2191.47 3928.34 2212.49 3898.92 2250.31 3835.88 2267.13 3806.46 2283.94 3777.04 2300.75 3747.62 2309.15 3718.2 2317.56 3692.98 2317.56 3667.76 2317.56 3642.54 2309.15 3613.12 2300.75 3587.9 2288.14 3562.69 2275.53 3533.27 2258.72 3508.05 2237.7 3478.63 2216.69 3453.41 2170.46 3394.57 2115.82 3331.52 2061.18 3264.28 2010.75 3205.44 1960.31 3138.19 1918.28 3075.15 1897.27 3045.73 1880.46 3016.3 1867.85 2986.88 1855.24 2957.46 1846.83 2932.25 1842.63 2911.23 1842.63 2890.22 1846.83 2869.2 1855.24 2856.59 1867.85 2843.98 1876.25 2835.58 1888.86 2831.38 1918.28 2822.97 1947.7 2818.77 1985.53 2814.56 2023.35 2810.36 2061.18 2801.95 2094.8 2789.35 2128.43 2772.53 2145.24 2759.93 2162.05 2747.32 2191.47 2713.69 2216.69 2675.87 2233.5 2638.04 2246.11 2596.01 2250.31 2549.78 2250.31 2507.75 2246.11 2469.92 2246.11 2465.72 2283.94 2474.13 2321.76 2486.73 2351.18 2499.34 2376.4 2520.36 2393.21 2537.17 2405.82 2558.18 2414.23 2583.4 2422.63 2608.62 2426.84 2633.84 2431.04 2663.26 2426.84 2692.68 2426.84 2726.3 2418.43 2755.72 2410.03 2789.35 2401.62 2822.97 2389.01 2852.39 2376.4 2886.01 2359.59 2915.43 2342.78 2940.65 2321.76 2970.07 2279.73 3016.3 2237.7 3058.33 2220.89 3079.35 2204.08 3100.36 2195.68 3121.38 2191.47 3146.6 2187.27 3159.2 2191.47 3171.81 2195.68 3197.03 2208.28 3226.45 2225.1 3255.87 2246.11 3285.29 2271.33 3310.51 2300.75 3335.73 2330.17 3360.95 2363.79 3381.96 2397.42 3398.77 2431.04 3415.58 2464.66 3423.99 2494.08 3428.19 2527.71 3428.19 2552.92 3423.99 2569.74 3419.79 2578.14 3411.38 2599.16 3398.77 2611.77 3381.96 2628.58 3360.95 2636.98 3335.73 2658 3285.29 2674.81 3230.66 2691.62 3176.02 2700.03 3155 2708.43 3133.99 2716.84 3112.97 2725.25 3100.36 2733.65 3087.75 2746.26 3083.55 2754.67 3079.35 2763.07 3083.55 2775.68 3087.75 2788.29 3091.96 2796.7 3100.36 2809.3 3112.97 2838.72 3133.99 2863.94 3163.41 2893.36 3197.03 2922.78 3226.45 2956.41 3255.87" style="fill: none; stroke: #000; stroke-linecap: round; stroke-linejoin: round; stroke-width: 19.8px;"/>
    <polyline points="758.27 1440.2 749.86 1452.81 745.66 1465.42 733.05 1490.64 724.65 1511.65 720.44 1536.87 716.24 1557.89 716.24 1583.1 716.24 1608.32 716.24 1633.54 720.44 1654.55 728.85 1679.77 737.26 1704.99 754.07 1755.42 779.28 1805.86 808.71 1852.09 846.53 1902.53 884.36 1952.96 926.39 2003.4 972.62 2049.63 1018.85 2100.06 1069.29 2146.3 1170.16 2238.76 1237.41 2293.4 1304.65 2352.24 1367.7 2406.88 1397.12 2436.3 1422.33 2461.52 1447.55 2490.94 1472.77 2516.16 1493.78 2545.58 1510.6 2570.79 1523.21 2600.21 1535.81 2629.63 1544.22 2654.85 1548.42 2684.27 1548.42 2717.9 1544.22 2751.52 1535.81 2785.14 1523.21 2822.97 1506.39 2856.59 1489.58 2894.42 1468.57 2928.04 1443.35 2965.87 1392.91 3041.52 1338.28 3117.18 1283.64 3197.03 1237.41 3276.89 1207.99 3331.52 1182.77 3386.16 1161.75 3440.8 1144.94 3495.44 1128.13 3550.08 1115.52 3604.72 1107.11 3659.35 1102.91 3718.2 1098.71 3772.83 1094.51 3827.47 1094.51 3886.31 1098.71 3940.95 1102.91 3999.79 1111.32 4054.43 1119.72 4113.27 1132.33 4167.91 1065.08 4167.91 1073.49 4142.69 1086.1 4121.68 1098.71 4100.66 1115.52 4083.85 1136.53 4067.04 1161.75 4054.43 1191.17 4041.82 1220.59 4033.42 1250.01 4033.42 1279.43 4033.42 1308.85 4033.42 1338.28 4041.82 1359.29 4050.23 1380.3 4062.84 1401.32 4075.44 1418.13 4092.26 1434.94 4109.07 1451.75 4125.88 1476.97 4167.91 1577.84 4167.91 1577.84 4109.07 1577.84 4075.44 1573.64 4037.62 1577.84 3953.56 1577.84 3911.53 1577.84 3873.7 1573.64 3840.08 1569.44 3823.27 1565.23 3810.66 1561.03 3798.05 1556.83 3789.65 1548.42 3785.44 1544.22 3785.44 1531.61 3785.44 1519 3789.65 1506.39 3798.05 1489.58 3806.46 1455.96 3835.88 1422.33 3865.3 1384.51 3894.72 1367.7 3907.33 1346.68 3919.94 1329.87 3928.34 1313.06 3932.54 1296.25 3936.75 1279.43 3936.75 1271.03 3932.54 1262.62 3924.14 1250.01 3915.73 1245.81 3907.33 1229 3882.11 1220.59 3852.69 1216.39 3819.07 1216.39 3785.44 1220.59 3768.63 1224.8 3751.82 1229 3739.21 1237.41 3722.4 1245.81 3709.79 1258.42 3692.98 1287.84 3667.76 1317.26 3646.74 1346.68 3625.73 1376.1 3608.92 1384.51 3600.51 1392.91 3592.11 1401.32 3583.7 1405.52 3575.29 1405.52 3566.89 1401.32 3554.28 1397.12 3545.87 1384.51 3533.27 1359.29 3512.25 1334.07 3487.03 1325.67 3478.63 1317.26 3466.02 1313.06 3457.61 1313.06 3449.21 1317.26 3440.8 1321.46 3428.19 1329.87 3419.79 1342.48 3411.38 1367.7 3394.57 1397.12 3373.55 1426.54 3352.54 1455.96 3331.52 1481.18 3302.1 1489.58 3281.09 1502.19 3260.07 1506.39 3243.26 1510.6 3222.25 1510.6 3201.23 1506.39 3184.42 1502.19 3167.61 1489.58 3155 1476.97 3146.6 1464.36 3142.39 1447.55 3138.19 1426.54 3138.19 1384.51 3142.39 1342.48 3146.6 1300.45 3155 1283.64 3155 1262.62 3159.2 1250.01 3159.2 1237.41 3155 1224.8 3150.8 1216.39 3146.6 1212.19 3133.99 1216.39 3112.97 1220.59 3091.96 1229 3070.94 1245.81 3020.51 1254.22 2995.29 1258.42 2970.07 1262.62 2953.26 1258.42 2936.45 1258.42 2919.64 1254.22 2907.03 1241.61 2877.61 1220.59 2848.19 1199.58 2822.97 1178.56 2793.55 1157.55 2759.93 1136.53 2726.3 1115.52 2680.07 1098.71 2629.63 1086.1 2579.2 1077.69 2528.76 1073.49 2486.73 1077.69 2465.72 1077.69 2448.91 1081.9 2436.3 1090.3 2423.69 1094.51 2415.28 1107.11 2411.08 1115.52 2411.08 1123.93 2411.08 1132.33 2415.28 1144.94 2419.49 1157.55 2427.89 1170.16 2440.5 1191.17 2465.72 1216.39 2495.14 1241.61 2528.76 1258.42 2562.39 1275.23 2600.21 1287.84 2642.24 1296.25 2688.48 1300.45 2726.3 1304.65 2768.33 1313.06 2801.95 1321.46 2835.58 1329.87 2848.19 1338.28 2865 1346.68 2877.61 1359.29 2886.01 1384.51 2898.62 1413.93 2911.23 1447.55 2915.43 1476.97 2919.64 1510.6 2915.43 1540.02 2911.23 1565.23 2898.62 1586.25 2881.81 1598.86 2869.2 1607.26 2852.39 1611.47 2831.38 1611.47 2810.36 1615.67 2764.13 1615.67 2717.9 1615.67 2650.65 1624.07 2587.61 1624.07 2524.56 1624.07 2495.14 1624.07 2461.52 1619.87 2436.3 1611.47 2406.88 1598.86 2352.24 1582.05 2297.6 1569.44 2238.76 1548.42 2129.49 1540.02 2074.85 1527.41 2045.43 1519 2020.21 1497.99 1986.59 1472.77 1952.96 1443.35 1923.54 1409.73 1894.12 1376.1 1873.11 1342.48 1856.29 1321.46 1852.09 1304.65 1847.89 1283.64 1847.89 1266.83 1847.89 1237.41 1852.09 1203.78 1860.5 1174.36 1873.11 1144.94 1894.12 1119.72 1910.93 1090.3 1936.15 1035.66 1982.38 955.81 2045.43 875.95 2108.47 833.92 2142.09 791.89 2171.51 766.68 2179.92 745.66 2192.53 720.44 2200.93 699.43 2205.14 670.01 2205.14 640.59 2200.93 581.75 2192.53 522.91 2179.92 489.28 2171.51 459.86 2171.51 438.85 2171.51 417.83 2175.72 371.6 2184.12 329.57 2196.73 287.54 2213.54 253.92 2230.36 220.3 2247.17 220.3 2486.73 287.54 2486.73 346.38 2482.53 409.43 2469.92 472.47 2453.11 531.31 2432.1 590.15 2406.88 653.2 2381.66 716.24 2348.04 783.49 2318.62 859.14 2284.99 909.58 2263.98 960.01 2247.17 1069.29 2205.14 1174.36 2163.11 1224.8 2137.89 1275.23 2116.88 1317.26 2095.86 1359.29 2070.64 1392.91 2049.63 1409.73 2037.02 1422.33 2024.41 1434.94 2011.8 1443.35 1999.19 1451.75 1986.59 1460.16 1973.98 1464.36 1961.37 1464.36 1948.76 1464.36 1936.15 1464.36 1919.34 1460.16 1906.73 1451.75 1894.12 1443.35 1881.51 1434.94 1868.9 1409.73 1839.48 1380.3 1810.06 1346.68 1784.84 1308.85 1755.42 1233.2 1692.38 1157.55 1633.54 1119.72 1599.92 1090.3 1570.49 1060.88 1541.07 1039.87 1507.45 1031.46 1494.84 1023.06 1478.03 1018.85 1461.22 1018.85 1448.61 1018.85 1444.41 1014.65 1440.2" style="fill: none; stroke: #000; stroke-linecap: round; stroke-linejoin: round; stroke-width: 19.8px;"/>
    <polyline points="2452.05 1440.2 2418.43 1469.63 2393.21 1494.84 2363.79 1528.47 2342.78 1557.89 2334.37 1583.1 2325.97 1604.12 2313.36 1650.35 2304.95 1696.58 2296.55 1742.82 2292.34 1784.85 2288.14 1818.47 2283.94 1835.28 2279.73 1847.89 2271.33 1860.5 2262.92 1868.9 2250.31 1881.51 2233.5 1881.51 2212.49 1881.51 2191.47 1877.31 2166.25 1868.9 2141.04 1856.29 2111.62 1839.48 2086.4 1818.47 2056.98 1797.45 2027.56 1772.24 1972.92 1721.8 1947.7 1692.38 1922.48 1667.16 1901.47 1637.74 1880.45 1608.32 1855.24 1566.29 1834.22 1524.26 1817.41 1482.23 1809 1440.2" style="fill: none; stroke: #000; stroke-linecap: round; stroke-linejoin: round; stroke-width: 19.8px;"/>
    <polyline points="2956.41 2373.25 2939.59 2348.04 2926.99 2318.62 2918.58 2289.2 2914.38 2255.57 2910.17 2221.95 2910.17 2188.33 2914.38 2158.91 2918.58 2125.28 2926.99 2108.47 2935.39 2087.46 2956.41 2053.83" style="fill: none; stroke: #000; stroke-linecap: round; stroke-linejoin: round; stroke-width: 19.8px;"/>
    <polyline points="283.34 1440.2 291.74 1457.02 300.15 1473.83 312.76 1486.44 329.57 1494.84 342.18 1507.45 358.99 1511.65 430.44 1536.87 472.47 1549.48 510.3 1570.49 527.11 1578.9 543.92 1591.51 556.53 1608.32 569.14 1625.13 577.54 1646.15 585.95 1671.37 594.36 1692.38 594.36 1717.6 594.36 1738.61 585.95 1763.83 577.54 1784.84 564.94 1801.66 552.33 1814.27 539.72 1822.67 522.91 1831.08 506.09 1835.28 489.28 1839.48 468.27 1843.69 451.46 1843.69 430.44 1843.69 409.43 1839.48 392.62 1835.28 375.8 1831.08 358.99 1822.67 342.18 1814.27 329.57 1801.66 316.96 1789.05 308.56 1776.44 300.15 1751.22 300.15 1726 295.95 1671.37 295.95 1646.15 295.95 1625.13 287.54 1604.12 274.93 1591.51 266.53 1587.31 253.92 1587.31 237.11 1587.31 220.3 1587.31 220.3 1700.79 287.54 1700.79 354.79 1700.79 417.83 1704.99 485.08 1709.19 514.5 1717.6 543.92 1726 573.34 1734.41 598.56 1747.02 623.78 1763.83 644.79 1780.64 661.6 1797.45 682.62 1822.67 695.23 1843.69 712.04 1868.9 733.05 1927.74 754.07 1990.79 770.88 2058.04 783.49 2125.28 796.1 2196.73 804.5 2284.99 817.11 2369.05 821.31 2453.11 821.31 2490.94 817.11 2532.97 817.11 2570.79 808.71 2604.42 800.3 2638.04 791.89 2671.66 775.08 2701.08 758.27 2726.3 737.26 2751.52 716.24 2772.53 682.62 2793.55 644.79 2814.56 564.94 2843.98 522.91 2860.8 485.08 2881.81 447.25 2902.83 413.63 2928.04 392.62 2949.06 375.8 2970.07 358.99 2995.29 346.38 3020.51 333.77 3045.72 325.37 3075.15 321.17 3104.57 316.96 3133.99 312.76 3167.61 312.76 3197.03 316.96 3226.45 321.17 3260.07 329.57 3289.49 337.98 3318.92 350.59 3348.34 367.4 3377.76 388.41 3407.18 405.22 3432.4 447.25 3482.83 468.27 3508.05 480.88 3533.27 493.49 3558.48 497.69 3583.7 501.89 3600.51 497.69 3617.32 493.49 3634.14 485.08 3650.95 476.67 3667.76 464.06 3684.57 438.85 3722.4 384.21 3798.05 358.99 3835.88 337.98 3873.7 325.37 3911.53 312.76 3945.15 308.56 3982.98 308.56 4020.81 312.76 4058.63 321.17 4096.46 333.77 4130.08 346.38 4167.91 417.83 4167.91 417.83 4134.29 422.04 4096.46 430.44 4079.65 438.85 4062.84 447.25 4046.02 459.86 4025.01 472.47 4012.4 485.08 3995.59 518.7 3966.17 552.33 3936.75 590.15 3915.73 606.97 3907.33 623.78 3898.92 636.39 3894.72 653.2 3890.51 665.81 3890.51 674.21 3894.72 682.62 3898.92 686.82 3903.12 691.02 3919.94 686.82 3940.95 682.62 3966.17 674.21 3991.39 665.81 4020.81 661.6 4046.02 657.4 4071.24 661.6 4092.26 665.81 4104.87 678.41 4113.27 686.82 4121.68 703.63 4125.88 716.24 4130.08 737.26 4130.08 754.07 4130.08 775.08 4125.88 796.1 4121.68 817.11 4117.47 859.14 4100.66 901.17 4079.65 917.98 4067.04 934.79 4054.43 960.01 4029.21 976.82 3999.79 993.63 3970.37 997.84 3936.75 1002.04 3907.33 997.84 3873.7 989.43 3844.28 976.82 3810.66 955.81 3777.04 930.59 3743.41 880.16 3684.57 859.14 3655.15 842.33 3629.93 833.92 3617.32 829.72 3604.72 829.72 3592.11 829.72 3579.5 833.92 3566.89 842.33 3554.28 850.74 3541.67 863.34 3533.27 892.76 3508.05 926.39 3487.03 997.84 3436.6 1027.26 3411.38 1039.87 3398.77 1048.27 3386.16 1060.88 3369.35 1065.08 3352.54 1069.29 3335.73 1069.29 3314.71 1069.29 3297.9 1065.08 3281.09 1060.88 3260.07 1056.68 3239.06 1035.66 3201.23 1014.65 3159.2 989.43 3117.18 960.01 3075.15 922.19 3016.3 905.37 2991.09 888.56 2961.67 880.16 2936.45 871.75 2911.23 867.55 2886.01 871.75 2873.41 875.95 2865 884.36 2843.98 896.97 2827.17 917.98 2810.36 934.79 2793.55 976.82 2751.52 993.63 2730.5 1010.45 2709.49 1018.85 2688.48 1023.06 2663.26 1027.26 2642.24 1027.26 2617.03 1027.26 2591.81 1023.06 2566.59 1018.85 2541.37 1014.65 2520.36 993.63 2474.13 985.23 2457.31 972.62 2440.5 960.01 2423.69 943.2 2411.08 930.59 2402.68 913.78 2398.47 896.97 2394.27 875.95 2398.47 854.94 2406.88 829.72 2419.49 808.71 2432.1 783.49 2448.91 728.85 2482.53 682.62 2507.75 657.4 2520.36 636.39 2528.76 615.37 2532.97 598.56 2537.17 581.75 2537.17 569.14 2528.76 564.94 2520.36 560.73 2511.95 552.33 2490.94 552.33 2465.72 552.33 2436.3 552.33 2406.88 548.12 2373.26 539.72 2348.04 535.52 2335.43 527.11 2327.02 518.7 2314.41 506.09 2306.01 480.88 2297.6 451.46 2289.2 417.83 2289.2 384.21 2297.6 354.79 2310.21 329.57 2322.82 321.17 2335.43 312.76 2343.83 304.35 2356.44 300.15 2373.26 300.15 2390.07 300.15 2406.88 300.15 2440.5 308.56 2474.13 316.96 2507.75 321.17 2541.37 321.17 2570.79 316.96 2583.4 312.76 2591.81 304.35 2600.21 300.15 2604.42 279.14 2612.82 249.72 2617.03 220.3 2621.23 220.3 2738.91 253.92 2734.71 287.54 2726.3 316.96 2717.9 346.38 2705.29 371.6 2692.68 392.62 2675.87 409.43 2659.05 426.24 2638.04 434.64 2621.23 438.85 2604.42 443.05 2587.61 443.05 2566.59 443.05 2524.56 438.85 2482.53 426.24 2436.3 413.63 2390.07 388.41 2293.4 375.8 2242.96 367.4 2188.33 358.99 2137.89 354.79 2087.46 350.59 2041.22 346.38 1990.79 346.38 1894.12 354.79 1810.06 358.99 1721.8 358.99 1675.57 358.99 1629.34 354.79 1578.9 350.59 1528.47 342.18 1486.44 337.98 1440.2" style="fill: none; stroke: #000; stroke-linecap: round; stroke-linejoin: round; stroke-width: 19.8px;"/>
    <polyline points="2784.09 1440.2 2775.68 1478.03 2763.07 1515.86 2746.26 1553.68 2729.45 1591.51 2687.42 1662.96 2641.19 1726 2620.17 1759.63 2599.16 1789.05 2582.34 1814.27 2569.74 1839.48 2561.33 1860.5 2552.92 1881.51 2557.13 1898.32 2557.13 1906.73 2565.53 1915.14 2573.94 1923.54 2586.55 1931.95 2607.56 1936.15 2624.37 1944.56 2649.59 1948.76 2674.81 1952.96 2729.45 1957.16 2788.29 1965.57 2847.13 1973.98 2905.97 1986.59 2931.19 1994.99 2956.41 2007.6" style="fill: none; stroke: #000; stroke-linecap: round; stroke-linejoin: round; stroke-width: 19.8px;"/>
    <polyline points="2090.6 1440.2 2094.8 1444.41 2099.01 1448.61 2107.41 1452.81 2115.82 1452.81 2124.23 1448.61 2136.83 1440.2" style="fill: none; stroke: #000; stroke-linecap: round; stroke-linejoin: round; stroke-width: 19.8px;"/>
    <polyline points="1615.67 1440.2 1632.48 1482.23 1653.5 1524.26 1674.51 1566.29 1695.53 1608.32 1745.96 1688.18 1800.6 1768.03 1859.44 1847.89 1922.48 1923.54 1993.93 1999.19 2065.38 2066.44 2141.04 2129.49 2216.69 2188.33 2254.52 2213.54 2296.55 2238.76 2334.37 2259.78 2376.4 2280.79 2418.43 2301.81 2456.26 2318.62 2498.29 2331.23 2536.11 2343.84 2578.14 2352.24 2620.17 2360.65 2658 2364.85 2700.03 2364.85 2729.45 2364.85 2763.07 2364.85 2826.12 2352.24 2893.36 2339.63 2956.41 2322.82" style="fill: none; stroke: #000; stroke-linecap: round; stroke-linejoin: round; stroke-width: 19.8px;"/>
  </g>
</svg>