<?xml version="1.0" encoding="UTF-8"?>
<svg id="Layer_2" data-name="Layer 2" xmlns="http://www.w3.org/2000/svg" viewBox="0 0 203.6 216.43">
  <defs>
    <style>
      .cls-1 {
        fill: none;
        stroke: #231f20;
        stroke-miterlimit: 10;
      }
    </style>
  </defs>
  <g id="Layer_1-2" data-name="Layer 1">
    <path class="cls-1" d="M146.63,127.12l56.38,17.05c-3.79,15.82-9.75,29.04-17.89,39.65-8.14,10.61-18.25,18.62-30.32,24.02-12.07,5.4-27.43,8.1-46.08,8.1-22.63,0-41.11-3.29-55.46-9.87-14.34-6.58-26.72-18.15-37.14-34.72C5.71,154.77.5,133.57.5,107.72.5,73.26,9.66,46.77,27.98,28.26S72.22.5,105.73.5c26.22,0,46.84,5.31,61.85,15.92,15,10.61,26.15,26.91,33.44,48.88l-56.8,12.65c-1.99-6.35-4.07-10.99-6.25-13.93-3.6-4.92-8-8.72-13.21-11.37-5.21-2.65-11.03-3.98-17.47-3.98-14.58,0-25.75,5.87-33.51,17.6-5.87,8.71-8.8,22.38-8.8,41.02,0,23.09,3.5,38.92,10.51,47.48,7.01,8.56,16.85,12.84,29.54,12.84s21.61-3.46,27.91-10.37c6.3-6.91,10.86-16.96,13.7-30.13Z"/>
  </g>
</svg>