<?xml version="1.0" encoding="UTF-8"?>
<svg id="Layer_2" data-name="Layer 2" xmlns="http://www.w3.org/2000/svg" viewBox="0 0 199.2 216.43">
  <defs>
    <style>
      .cls-1 {
        fill: none;
        stroke: #231f20;
        stroke-miterlimit: 10;
      }
    </style>
  </defs>
  <g id="Layer_1-2" data-name="Layer 1">
    <path class="cls-1" d="M.5.5h98.88c19.49,0,35.24,2.65,47.24,7.94,12,5.29,21.91,12.88,29.75,22.78,7.84,9.9,13.52,21.41,17.04,34.53,3.53,13.13,5.29,27.04,5.29,41.73,0,23.02-2.62,40.88-7.86,53.56-5.24,12.69-12.51,23.32-21.82,31.89-9.31,8.57-19.3,14.28-29.97,17.12-14.6,3.92-27.82,5.88-39.67,5.88H.5V.5ZM67.06,49.29v117.71h16.31c13.91,0,23.8-1.54,29.68-4.63,5.88-3.09,10.48-8.47,13.81-16.16,3.33-7.69,5-20.16,5-37.4,0-22.83-3.72-38.45-11.17-46.88-7.44-8.42-19.79-12.64-37.02-12.64h-16.6Z"/>
  </g>
</svg>