<?xml version="1.0" encoding="UTF-8"?>
<svg id="Layer_2" data-name="Layer 2" xmlns="http://www.w3.org/2000/svg" viewBox="0 0 200.28 216.43">
  <defs>
    <style>
      .cls-1 {
        fill: none;
        stroke: #231f20;
        stroke-miterlimit: 10;
      }
    </style>
  </defs>
  <g id="Layer_1-2" data-name="Layer 1">
    <path class="cls-1" d="M.5.5h124.71c20.78,0,36.74,5.14,47.87,15.43,11.13,10.29,16.69,23.02,16.69,38.21,0,12.74-3.97,23.66-11.91,32.77-5.29,6.08-13.04,10.87-23.24,14.4,15.49,3.72,26.89,10.12,34.19,19.18,7.3,9.06,10.96,20.45,10.96,34.17,0,11.17-2.6,21.21-7.79,30.13-5.2,8.92-12.31,15.97-21.32,21.16-5.59,3.23-14.02,5.58-25.3,7.05-15,1.96-24.95,2.94-29.85,2.94H.5V.5ZM67.71,85h28.97c10.39,0,17.62-1.79,21.69-5.36,4.07-3.58,6.1-8.74,6.1-15.5,0-6.27-2.04-11.17-6.1-14.7-4.07-3.53-11.15-5.29-21.25-5.29h-29.41v40.85ZM67.71,169.64h33.97c11.47,0,19.56-2.03,24.27-6.1,4.71-4.06,7.06-9.53,7.06-16.39,0-6.37-2.33-11.49-6.99-15.36-4.66-3.87-12.82-5.8-24.49-5.8h-33.83v43.65Z"/>
  </g>
</svg>