<?xml version="1.0" encoding="UTF-8"?>
<svg id="Layer_2" data-name="Layer 2" xmlns="http://www.w3.org/2000/svg" viewBox="0 0 213.2 216.43">
  <defs>
    <style>
      .cls-1 {
        fill: none;
        stroke: #231f20;
        stroke-miterlimit: 10;
      }
    </style>
  </defs>
  <g id="Layer_1-2" data-name="Layer 1">
    <path class="cls-1" d="M113.21,136.92v-43.34h99.49v88.82c-19.05,12.98-35.89,21.81-50.53,26.5-14.64,4.69-32,7.03-52.09,7.03-24.73,0-44.89-4.21-60.48-12.65-15.59-8.43-27.67-20.98-36.24-37.66C4.79,148.95.5,129.82.5,108.22c0-22.74,4.69-42.51,14.07-59.33,9.38-16.82,23.12-29.58,41.22-38.3C69.91,3.86,88.91.5,112.78.5s40.25,2.08,51.66,6.25c11.42,4.17,20.89,10.64,28.43,19.4,7.53,8.76,13.19,19.87,16.98,33.32l-62.11,11.08c-2.56-7.86-6.89-13.88-13-18.05-6.11-4.17-13.91-6.25-23.38-6.25-14.12,0-25.37,4.9-33.76,14.71s-12.58,25.32-12.58,46.54c0,22.55,4.24,38.65,12.72,48.32,8.48,9.66,20.3,14.49,35.46,14.49,7.2,0,14.07-1.04,20.61-3.13,6.54-2.08,14.02-5.64,22.46-10.66v-19.61h-43.07Z"/>
  </g>
</svg>