<?xml version="1.0" encoding="UTF-8"?>
<svg id="Layer_2" data-name="Layer 2" xmlns="http://www.w3.org/2000/svg" viewBox="0 0 216.43 216.43">
  <defs>
    <style>
      .cls-1 {
        fill: none;
        stroke: #231f20;
        stroke-miterlimit: 10;
      }
    </style>
  </defs>
  <g id="Layer_1-2" data-name="Layer 1">
    <path class="cls-1" d="M.5,108.36C.5,74.35,9.95,47.87,28.87,28.92,47.77,9.97,74.11.5,107.86.5s61.27,9.31,79.99,27.92c18.72,18.62,28.08,44.69,28.08,78.23,0,24.35-4.09,44.31-12.27,59.9-8.18,15.58-20,27.71-35.46,36.38-15.46,8.67-34.72,13-57.79,13s-42.86-3.74-58.22-11.23c-15.37-7.48-27.82-19.33-37.37-35.53C5.27,152.98.5,132.71.5,108.36ZM64.75,108.64c0,21.03,3.9,36.14,11.7,45.33,7.8,9.19,18.41,13.78,31.84,13.78s24.49-4.5,32.05-13.5c7.56-9,11.35-25.15,11.35-48.46,0-19.61-3.95-33.94-11.84-42.99-7.9-9.05-18.6-13.57-32.12-13.57s-23.35,4.6-31.2,13.78c-7.85,9.19-11.77,24.4-11.77,45.62Z"/>
  </g>
</svg>