<?xml version="1.0" encoding="UTF-8"?>
<svg id="Layer_2" data-name="Layer 2" xmlns="http://www.w3.org/2000/svg" viewBox="0 0 205.84 216.6">
  <defs>
    <style>
      .cls-1 {
        fill: none;
        stroke: #231f20;
        stroke-miterlimit: 10;
      }
    </style>
  </defs>
  <g id="Layer_1-2" data-name="Layer 1">
    <path class="cls-1" d="M177.09,166.63c7.36,5.12,12.17,8.33,14.42,9.63,3.38,1.91,7.93,4.12,13.64,6.63l-16.37,33.04c-8.23-3.99-16.37-8.74-24.43-14.25-8.06-5.51-13.69-9.65-16.89-12.42-12.99,5.64-29.28,8.46-48.86,8.46-28.93,0-51.76-7.55-68.48-22.64C10.38,157.22.5,132.11.5,99.76S9.14,43.97,26.42,26.58C43.71,9.2,67.85.5,98.87.5s56.03,8.5,73.22,25.5c17.2,17,25.79,41.33,25.79,72.98,0,28.19-6.93,50.74-20.79,67.65ZM132,136.45c4.68-8.41,7.02-20.99,7.02-37.73,0-19.25-3.57-33-10.72-41.24-7.15-8.24-17-12.36-29.56-12.36-11.69,0-21.18,4.21-28.46,12.62-7.28,8.41-10.92,21.55-10.92,39.42,0,20.81,3.55,35.43,10.66,43.84,7.1,8.41,16.85,12.62,29.24,12.62,3.98,0,7.75-.39,11.31-1.17-4.94-4.77-12.73-9.28-23.39-13.53l9.23-21.21c5.2.95,9.25,2.13,12.15,3.51,2.9,1.39,8.55,5.03,16.96,10.93,1.99,1.39,4.16,2.82,6.5,4.29Z"/>
  </g>
</svg>