<?xml version="1.0" encoding="UTF-8"?>
<svg id="Layer_2" data-name="Layer 2" xmlns="http://www.w3.org/2000/svg" viewBox="0 0 203.51 216.43">
  <defs>
    <style>
      .cls-1 {
        fill: none;
        stroke: #231f20;
        stroke-miterlimit: 10;
      }
    </style>
  </defs>
  <g id="Layer_1-2" data-name="Layer 1">
    <path class="cls-1" d="M137.86.5h65.15v126.2c0,12.51-1.95,24.33-5.84,35.45-3.89,11.12-9.99,20.84-18.3,29.17-8.31,8.33-17.03,14.17-26.16,17.54-12.68,4.72-27.91,7.08-45.69,7.08-10.28,0-21.5-.72-33.66-2.16-12.16-1.45-22.32-4.31-30.48-8.59-8.17-4.28-15.64-10.37-22.41-18.26-6.77-7.89-11.41-16.03-13.91-24.4-4.04-13.48-6.05-25.41-6.05-35.81V.5h65.15v129.2c0,11.55,3.19,20.57,9.58,27.07,6.39,6.5,15.25,9.74,26.59,9.74s20.06-3.2,26.45-9.6c6.39-6.4,9.58-15.47,9.58-27.21V.5Z"/>
  </g>
</svg>