<?xml version="1.0" encoding="UTF-8"?>
<svg id="Layer_2" data-name="Layer 2" xmlns="http://www.w3.org/2000/svg" viewBox="0 0 199.48 216.43">
  <defs>
    <style>
      .cls-1 {
        fill: none;
        stroke: #231f20;
        stroke-miterlimit: 10;
      }
    </style>
  </defs>
  <g id="Layer_1-2" data-name="Layer 1">
    <path class="cls-1" d="M169.48,153.51c-1.42-3.14-4.24-7.6-8.45-13.38-4.22-5.79-7.43-9.56-9.65-11.33-3.28-2.65-8.52-5.29-15.71-7.94,8.97-2.25,16.04-5.09,21.19-8.52,8.08-5.39,14.44-12.42,19.06-21.09,4.62-8.67,6.93-18.98,6.93-30.93,0-13.72-3.02-25.35-9.06-34.9-6.04-9.55-13.99-16.09-23.84-19.62-9.86-3.53-24.11-5.29-42.76-5.29H.5v215.43h66.73v-87.44h5.33c3.32,0,6.43.61,9.34,1.82,1.91.8,3.72,1.86,5.45,3.18,3.2,2.55,6.84,8.08,10.92,16.61l32.25,65.83h68.18l-29.22-62.43ZM67.23,87.79v-43.79h26.51c11.01,0,18.52,1.86,22.51,5.58,4,3.72,5.99,9.06,5.99,16.02,0,4.7-1.27,8.87-3.8,12.49-2.53,3.63-5.79,5.88-9.79,6.76-7.9,1.96-13.23,2.94-15.98,2.94h-25.44Z"/>
  </g>
</svg>